<?xml version="1.0" encoding="utf-8"?>
<svg width="419.2" height="70" xmlns="http://www.w3.org/2000/svg">
 <style type="text/css">.st0{fill:#FFC10E;}
	.st1{fill:#FBBB80;}
	.st2{fill:#2DA34A;stroke:#2DA34A;stroke-miterlimit:10;}
	.st3{fill:#0094D4;}
	.st4{fill:#EE4023;}
	.st5{fill:#231F20;}
	.st6{fill:#FFFFFF;}
	.st7{fill:#959595;}</style>

 <g>
  <title>Layer 1</title>
  <g id="svg_1">
   <polygon id="svg_2" points="23.1,14.2 31.6,15.7 32.2,15.2 30,14.2 32.8,13.5 29.7,12.8 33,11.5 29.6,11.4 32.1,9.6 28.9,10    31,7.9 28.3,8.8 29.6,6.5 27.3,7.7 28.1,5.2 26,6.8 26.3,4.1 24.8,6.2 24.5,3.8 23.3,6 22.6,3.5 21.9,5.8 20.7,3.8 20.4,6.2    18.6,4.3 19,6.9 17,5.2 17.7,7.8 15.5,6.4 16.9,8.8 14.3,7.9 16,9.9 13.3,9.7 15.3,11.4 12.7,11.4 15.3,12.8 12.1,13.5 14.9,14.1    12.5,15.4 15.4,15.8 16.5,14.7 18.2,14.8 20.6,14.2  " class="st0"/>
   <polygon id="svg_3" points="8.7,52.5 15.5,49.4 17.6,51 21.2,52.5 25.8,51.5 29.5,49.2 36.1,52.5 38.8,46.4 32.8,45.6 22,42.7    18.3,44.2 14.9,45 6.1,46.2  " class="st1"/>
   <g id="svg_4">
    <path id="svg_5" d="m35.7,58.2c-0.5,-0.1 -1.2,-0.1 -2.1,0.3c-0.1,0 -0.2,0 -0.3,-0.1c-0.1,-0.1 -0.1,-0.2 -0.1,-0.3c0,0 0.3,-0.6 0.3,-1.3c0,0 0,0 0,0c0,0 0,0 0,0c-0.2,0.2 -0.5,0.4 -0.7,0.6c-0.6,0.7 -0.9,1.5 -0.9,2.3c0,0 0,0 0,0c0.1,0 0.2,0 0.4,0c0.2,0 0.4,0 0.6,-0.1c0.7,0 1.7,-0.4 2.8,-1.4c0,0 0,0 0,0c0,0 0,0 0,0" class="st2"/>
    <path id="svg_6" d="m37.6,55.6c-0.5,0 -1.2,0.2 -2,0.7c-0.1,0.1 -0.2,0.1 -0.3,0c-0.1,-0.1 -0.1,-0.2 -0.1,-0.3c0,0 0.1,-0.7 0.1,-1.4c0,0 0,0 0,0c0,0 0,0 0,0c-0.2,0.2 -0.4,0.5 -0.5,0.7c-0.5,0.8 -0.7,1.6 -0.7,2.3c0,0 0,0 0,0c0,0 0.1,0 0.1,0c0.2,0 0.6,0 1,-0.2c0.4,-0.1 0.9,-0.4 1.3,-0.7c0.4,-0.2 0.8,-0.6 1.1,-1.1c0,0 0,0 0,0c0,0 0,0 0,0" class="st2"/>
    <path id="svg_7" d="m39.2,52.9c-0.5,0.1 -1.2,0.3 -1.9,0.9c-0.1,0.1 -0.2,0.1 -0.3,0c-0.1,0 -0.1,-0.1 -0.1,-0.3c0,0 0.1,-0.7 -0.1,-1.4c0,0 0,0 0,0c0,0 0,0 0,0c-0.2,0.2 -0.3,0.5 -0.5,0.8c-0.4,0.8 -0.6,1.6 -0.4,2.4c0,0 0,0 0,0l0,0c0.2,0 0.6,-0.1 1.1,-0.3c0.4,-0.2 0.8,-0.5 1.2,-0.8c0.4,-0.3 0.7,-0.8 1,-1.3c0,0 0,0 0,0c0,0 0,0 0,0" class="st2"/>
    <path id="svg_8" d="m40.5,50c-0.1,0 -0.2,0 -0.3,0.1c-0.4,0.1 -1,0.4 -1.5,1c-0.1,0.1 -0.2,0.1 -0.3,0.1c-0.1,0 -0.2,-0.1 -0.2,-0.2c0,0 0,-0.7 -0.2,-1.3c0,0 0,0 0,0c0,0 0,0 0,0c-0.1,0.3 -0.3,0.5 -0.4,0.8c-0.3,0.9 -0.4,1.7 -0.1,2.5c0,0 0,0 0,0l0,0c0.2,0 0.6,-0.1 1.1,-0.4c0.4,-0.2 0.8,-0.6 1.1,-1c0.3,-0.6 0.6,-1.1 0.8,-1.6c0,0 0,0 0,0c0,0 0,0 0,0" class="st2"/>
    <path id="svg_9" d="m41.4,47c-0.4,0.2 -1.1,0.5 -1.7,1.3c-0.1,0.1 -0.2,0.1 -0.3,0.1c-0.1,0 -0.2,-0.1 -0.2,-0.2c0,0 -0.1,-0.7 -0.4,-1.4c0,0 0,0 0,0l0,0c0,0 0,0 0,0c-0.1,0.3 -0.2,0.6 -0.3,0.9c-0.2,0.6 -0.3,1.6 0.1,2.5c0,0 0,0 0,0c0,0 0,0 0,0c0.2,0 0.6,-0.2 1,-0.5c0.4,-0.3 0.7,-0.6 1,-1.1c0.4,-0.5 0.7,-1 0.8,-1.6c0.1,0 0.1,0 0,0c0,0 0,0 0,0" class="st2"/>
    <path id="svg_10" d="m11.4,56.8c0,0 0,0 0,0c0,0 0,0 0,0c0,0.7 0.3,1.3 0.3,1.3c0,0.1 0,0.2 -0.1,0.3c-0.1,0.1 -0.2,0.1 -0.3,0.1c-0.9,-0.3 -1.6,-0.3 -2.1,-0.3c0,0 0,0 0,0c0,0 0,0 0,0c0.9,0.8 1.8,1.3 2.7,1.5c0.2,0 0.4,0.1 0.6,0.1c0.2,0 0.3,0 0.4,0c0,0 0,0 0,0c0.2,-1.5 -0.9,-2.5 -1.5,-3" class="st2"/>
    <path id="svg_11" d="m42,43.9c-0.4,0.2 -1,0.7 -1.5,1.5c-0.1,0.1 -0.2,0.1 -0.3,0.1c-0.1,0 -0.2,-0.1 -0.2,-0.2c0,0 -0.2,-0.8 -0.5,-1.4c0,0 0,0 0,0c0,0 0,0 0,0c-0.1,0.3 -0.1,0.6 -0.2,0.9c-0.1,1 0,1.8 0.4,2.5c0,0 0,0 0,0c0,0 0,0 0,0c0.2,-0.1 0.6,-0.3 0.9,-0.6c0.3,-0.3 0.6,-0.7 0.9,-1.2c0.3,-0.5 0.5,-1 0.5,-1.6c0.1,0 0.1,0 0,0c0,0 0,0 0,0" class="st2"/>
    <path id="svg_12" d="m41,42.4c0,0.1 -0.1,0.2 -0.2,0.1c-0.1,0 -0.2,-0.1 -0.2,-0.2c0,0 -0.2,-0.7 -0.7,-1.2c0,0 0,0 0,0c0,0 0,0 0,0c-0.1,0.3 -0.1,0.6 -0.1,0.9c0,0.9 0.2,1.7 0.7,2.4c0,0 0,0 0,0c0,0 0,0 0,0c0.1,-0.1 0.5,-0.3 0.9,-0.7c0.3,-0.4 0.5,-0.8 0.7,-1.3c0.2,-0.5 0.3,-1 0.3,-1.6c0,0 0,0 0,0c0,0 0,0 0,0c-0.5,0.2 -1,0.8 -1.4,1.6" class="st2"/>
    <path id="svg_13" d="m40.9,39.6c-0.1,0 -0.2,-0.1 -0.2,-0.1c0,0 -0.3,-0.6 -0.8,-1.1c0,0 0,0 0,0c0,0 0,0 0,0c0,0.8 0.1,2.2 0.9,3.1c0,0 0,0 0,0c0,0 0,0 0,0c0.1,-0.1 0.5,-0.3 0.8,-0.8c0.3,-0.4 0.5,-0.8 0.6,-1.3c0.1,-0.5 0.2,-1.1 0.2,-1.7c0,0 0,0 0,0c0,0 0,0 0,0c-0.4,0.3 -0.9,0.9 -1.2,1.7c-0.1,0.1 -0.2,0.1 -0.3,0.2" class="st2"/>
    <path id="svg_14" d="m40.7,36.5c-0.1,0 -0.2,0 -0.3,-0.1c0,0 -0.4,-0.6 -0.8,-1c0,0 0,0 0,0c0,0 0,0 0,0c0.1,0.8 0.3,2.3 1.2,3c0,0 0,0 0,0c0,0 0,0 0,0c0.1,-0.1 0.4,-0.4 0.7,-0.9c0.2,-0.4 0.4,-0.9 0.5,-1.4c0.1,-0.5 0.1,-1.1 0,-1.7c0,0 0,0 0,0c0,0 0,0 0,0c-0.3,0.3 -0.8,0.9 -1,1.8c-0.1,0.2 -0.2,0.3 -0.3,0.3" class="st2"/>
    <path id="svg_15" d="m40.3,33.6c-0.1,0 -0.2,0 -0.3,-0.1c0,0 -0.4,-0.6 -0.9,-1c0,0 0,0 0,0c0,0 0,0 0,0c0,0.3 0.1,0.6 0.2,0.9c0.2,0.6 0.5,1.5 1.2,2.1c0,0 0,0 0,0c0,0 0,0 0,0c0.1,-0.1 0.4,-0.4 0.7,-0.9c0.2,-0.4 0.3,-0.9 0.4,-1.4c0.1,-0.5 0,-1.1 -0.1,-1.7c0,0 0,0 0,0c0,0 0,0 0,0c-0.3,0.4 -0.7,1 -0.9,1.9c-0.1,0.1 -0.2,0.1 -0.3,0.2" class="st2"/>
    <path id="svg_16" d="m39.7,30.7c-0.1,0 -0.2,0 -0.3,-0.1c0,0 -0.5,-0.5 -1.1,-0.9c0,0 0,0 0,0c0,0 0,0 0,0c0.1,0.3 0.2,0.6 0.3,0.8c0.3,0.9 0.8,1.5 1.5,1.9c0,0 0,0 0,0c0,0 0,0 0,0c0.1,-0.1 0.4,-0.5 0.5,-1c0.1,-0.4 0.2,-0.9 0.2,-1.4c0,-0.5 -0.1,-1.1 -0.3,-1.6c0,0 0,0 0,0c0,0 0,0 0,0c-0.3,0.4 -0.6,1.1 -0.6,2c-0.1,0.1 -0.1,0.2 -0.2,0.3" class="st2"/>
    <path id="svg_17" d="m38.4,27.8c0,0 -0.5,-0.5 -1.1,-0.8c0,0 0,0 0,0c0,0 0,0 0,0c0.1,0.3 0.2,0.6 0.3,0.8c0.4,0.8 1,1.4 1.7,1.8c0,0 0,0 0,0c0,0 0,0 0,0c0.1,-0.1 0.3,-0.5 0.4,-1c0.1,-0.5 0.1,-0.9 0,-1.5c-0.1,-0.5 -0.2,-1 -0.5,-1.6c0,0 0,0 0,0c0,0 0,0 0,0c-0.2,0.4 -0.5,1.1 -0.4,2c0,0.1 -0.1,0.2 -0.1,0.2c-0.1,0.1 -0.3,0.1 -0.3,0.1" class="st2"/>
    <path id="svg_18" d="m35.8,24.5c0,0 0,0 0,0c0.1,0.3 0.3,0.6 0.4,0.8c0.5,0.8 1.2,1.3 1.9,1.6c0,0 0,0 0,0c0,0 0,0 0,0c0.1,-0.1 0.2,-0.5 0.3,-1.1c0,-0.5 0,-1 -0.1,-1.5c-0.1,-0.5 -0.4,-1 -0.7,-1.5c0,0 0,0 0,0c0,0 0,0 0,0c-0.2,0.4 -0.3,1.2 -0.2,2.1c0,0.1 0,0.2 -0.1,0.3c-0.1,0.1 -0.2,0 -0.3,0c0.1,-0.1 -0.5,-0.6 -1.2,-0.7c0,0 0,0 0,0" class="st2"/>
    <path id="svg_19" d="m34.1,22.2c0,0 0,0 0,0c0.2,0.3 0.4,0.5 0.6,0.8c0.6,0.7 1.4,1.1 2.1,1.3c0,0 0,0 0,0c0,0 0,0 0,0c0.1,-0.2 0.2,-0.6 0.1,-1.1c0,-0.5 -0.2,-0.9 -0.4,-1.4c-0.2,-0.5 -0.5,-0.9 -0.9,-1.4c0,0 0,0 0,0c0,0 0,0 0,0c-0.1,0.5 -0.1,1.2 0.1,2.1c0,0.1 0,0.2 -0.1,0.3c-0.1,0.1 -0.2,0.1 -0.3,0c0.1,-0.2 -0.5,-0.6 -1.2,-0.6c0,0 0,0 0,0" class="st2"/>
    <path id="svg_20" d="m33.8,20.3c-0.1,0.1 -0.2,0.1 -0.3,0.1c0,0 -0.6,-0.2 -1.3,-0.2c0,0 -0.1,0 -0.1,0c0,0 0,0 0,0c0,0 0,0 0,0c0.2,0.2 0.5,0.5 0.7,0.7c0.5,0.4 1.3,0.9 2.2,0.9c0,0 0,0 0,0c0,0 0,0 0,0c0,-0.2 0.1,-0.6 -0.1,-1.1c-0.1,-0.5 -0.3,-0.9 -0.6,-1.3c-0.3,-0.4 -0.6,-0.8 -1.1,-1.2c0,0 0,0 0,0c0,0 0,0 0,0c0,0.5 0.1,1.2 0.5,2c0.1,0 0.1,0.1 0.1,0.1" class="st2"/>
    <path id="svg_21" d="m10.8,57.7c0,0 0.1,0 0.1,0c0,0 0,0 0,0c0.1,-1.3 -0.7,-2.4 -1.2,-3c0,0 0,0 0,0c0,0 0,0 0,0c-0.1,0.6 0.1,1.3 0.1,1.3c0,0.1 0,0.2 -0.1,0.3c-0.1,0.1 -0.2,0.1 -0.3,0c-0.8,-0.5 -1.5,-0.6 -2,-0.7c0,0 0,0 0,0c0,0 0,0 0,0c0.4,0.5 0.7,0.9 1.1,1.2c0.4,0.3 0.8,0.6 1.3,0.7c0.4,0.2 0.8,0.2 1,0.2" class="st2"/>
    <path id="svg_22" d="m9.1,55.4l0,0c0,0 0,-0.1 0,0c0.2,-1 -0.1,-1.9 -0.4,-2.4c-0.1,-0.3 -0.3,-0.5 -0.5,-0.8c0,0 0,0 0,0c0,0 0,0 0,0c-0.1,0.7 -0.1,1.3 -0.1,1.3c0,0.1 0,0.2 -0.1,0.3c-0.1,0.1 -0.2,0 -0.3,0c-0.7,-0.6 -1.4,-0.8 -1.9,-0.9c0,0 0,0 0,0c0,0 0,0 0,0c0.3,0.5 0.6,1 1,1.3c0.4,0.4 0.8,0.6 1.2,0.8c0.5,0.3 0.9,0.3 1.1,0.4" class="st2"/>
    <path id="svg_23" d="m7.5,52.9c0,0 0,0 0,0c0,0 0,0 0,0c0.3,-0.8 0.2,-1.6 -0.1,-2.5c-0.1,-0.3 -0.2,-0.5 -0.4,-0.8c0,0 0,0 0,0c0,0 0,0 0,0c-0.2,0.6 -0.2,1.3 -0.2,1.4c0,0.1 -0.1,0.2 -0.2,0.2c-0.1,0 -0.2,0 -0.3,-0.1c-0.6,-0.6 -1.1,-0.9 -1.5,-1c-0.1,0 -0.2,-0.1 -0.3,-0.1c0,0 0,0 0,0c0,0 0,0 0,0c0.2,0.5 0.5,1 0.9,1.4c0.3,0.4 0.7,0.7 1.1,1c0.4,0.3 0.8,0.4 1,0.5" class="st2"/>
    <path id="svg_24" d="m6.2,50.2c0,0 0,0 0,0c0,0 0,0 0,0c0.6,-1.3 0.2,-2.7 -0.1,-3.3c0,0 0,0 0,0l0,0c0,0 0,0 0,0c-0.3,0.6 -0.4,1.3 -0.4,1.3c0,0.1 -0.1,0.2 -0.2,0.2c-0.1,0 -0.2,0 -0.3,-0.1c-0.5,-0.6 -1,-1 -1.4,-1.2c-0.1,0 -0.2,-0.1 -0.2,-0.1c0,0 0,0 0,0c0,0 0,0 0,0c0.6,2.4 2,3 2.6,3.2" class="st2"/>
    <path id="svg_25" d="m4.3,46.8c0.4,0.4 0.8,0.5 1,0.6c0,0 0,0 0,0c0,0 0,0 0,0c0.5,-0.8 0.6,-1.7 0.4,-2.5c-0.1,-0.3 -0.2,-0.6 -0.3,-0.8c0,0 0,0 0,0c0,0 0,0 0,0c-0.4,0.6 -0.5,1.3 -0.5,1.4l0,0l0,0c0,0.1 -0.1,0.2 -0.2,0.2c-0.1,0 -0.2,0 -0.3,-0.1c-0.5,-0.8 -1.1,-1.2 -1.6,-1.4c0,0 0,0 0,0c0,0 0,0 0,0c0.1,0.6 0.3,1.1 0.6,1.6c0.2,0.3 0.5,0.7 0.9,1" class="st2"/>
    <path id="svg_26" d="m4.4,44.5c0,0 0,0 0,0c0,0 0,0 0,0c1,-1.3 0.9,-2.6 0.8,-3.3c0,0 0,0 0,0c0,0 0,0 0,0c-0.5,0.5 -0.7,1.2 -0.7,1.2c0,0.1 -0.1,0.2 -0.2,0.2l0,0c0,0 0,0 0,0c-0.1,0 -0.2,-0.1 -0.2,-0.2c-0.3,-0.7 -0.8,-1.2 -1.1,-1.5c-0.1,-0.1 -0.1,-0.1 -0.2,-0.2c0,0 0,0 0,0c0,0 0,0 0,0c-0.1,2.6 1.1,3.5 1.6,3.8" class="st2"/>
    <path id="svg_27" d="m4.2,41.6c0,0 0,0 0,0c0,0 0,0 0,0c0.5,-0.5 0.8,-1 0.9,-1.8c0.1,-0.6 0.1,-1.2 0,-1.5c0,0 0,0 0,0c0,0 0,0 0,0c-0.5,0.5 -0.7,1.1 -0.7,1.2c0,0.1 -0.1,0.2 -0.2,0.2c-0.1,0 -0.2,-0.1 -0.3,-0.2c-0.2,-0.8 -0.6,-1.3 -0.9,-1.6c-0.1,-0.1 -0.1,-0.1 -0.2,-0.2c0,0 0,0 0,0c0,0 0,0 0,0c-0.2,2.4 0.9,3.5 1.4,3.9" class="st2"/>
    <path id="svg_28" d="m3.5,37.6c0.2,0.4 0.5,0.7 0.7,0.8c0,0 0,0 0,0c0,0 0,0 0,0c0.6,-0.5 0.9,-1.3 1.1,-2.2c0,-0.3 0.1,-0.6 0.1,-0.9c0,0 0,0 0,0c0,0 0,0 0,0c-0.5,0.5 -0.8,1.1 -0.8,1.1c0,0.1 -0.2,0.2 -0.3,0.1c-0.1,0 -0.2,-0.1 -0.2,-0.2c-0.2,-0.9 -0.7,-1.5 -1,-1.8c0,0 0,0 0,0c0,0 0,0 0,0c-0.1,0.6 -0.1,1.2 0,1.7c0,0.5 0.1,0.9 0.4,1.4" class="st2"/>
    <path id="svg_29" d="m3.8,34.5c0.2,0.5 0.5,0.8 0.6,0.9c0,0 0,0 0,0c0,0 0,0 0,0c0.6,-0.6 1.1,-1.3 1.3,-2.2c0.1,-0.3 0.1,-0.5 0.1,-0.8c0,0 0,0 0,0c0,0 0,0 0,0c-0.5,0.4 -0.9,1 -1,1c-0.1,0.1 -0.2,0.1 -0.3,0.1c-0.1,0 -0.2,-0.1 -0.2,-0.2c-0.2,-0.9 -0.6,-1.5 -0.9,-1.9c0,0 0,0 0,0c0,0 0,0 0,0c-0.1,0.6 -0.1,1.1 -0.1,1.7c0.1,0.5 0.3,1 0.5,1.4" class="st2"/>
    <path id="svg_30" d="m4.8,32.5c0,0 0,0 0,0c0.1,0 0.1,0 0,0c0.8,-0.5 1.3,-1.2 1.6,-2c0.1,-0.3 0.1,-0.5 0.2,-0.8c0,0 0,0 0,0c0,0 0,0 0,0c-0.6,0.3 -1.1,0.8 -1.1,0.8c-0.1,0.1 -0.2,0.1 -0.3,0.1c-0.1,0 -0.2,-0.1 -0.2,-0.2c-0.1,-0.9 -0.4,-1.6 -0.7,-2c0,0 0,0 0,0c0,0 0,0 0,0c-0.2,0.6 -0.3,1.1 -0.3,1.6c0,0.5 0.1,1 0.2,1.4c0.3,0.6 0.5,1 0.6,1.1" class="st2"/>
    <path id="svg_31" d="m5.6,29.6c0,0 0,0 0,0c0,0 0,0 0,0c0.9,-0.4 1.5,-1 1.9,-1.8c0.1,-0.2 0.2,-0.5 0.3,-0.8c0,0 0,0 0,0c0,0 0,0 0,0c-0.6,0.3 -1.2,0.7 -1.2,0.8c-0.1,0.1 -0.2,0.1 -0.3,0c-0.1,0 -0.2,-0.1 -0.1,-0.2c0,-0.9 -0.2,-1.6 -0.4,-2c0,0 0,0 0,0l0,0c0,0 0,0 0,0c-0.2,0.5 -0.4,1.1 -0.5,1.6c-0.1,0.5 -0.1,1 0,1.5c0,0.4 0.2,0.7 0.3,0.9" class="st2"/>
    <path id="svg_32" d="m6.7,26.8c0,0.1 0,0.1 0,0c0,0.1 0,0.1 0,0c0.8,-0.2 1.4,-0.7 2,-1.5c0.2,-0.3 0.4,-0.6 0.5,-0.8c0,0 0,0 0,0c0,0 0,0 0,0c-0.7,0.1 -1.3,0.6 -1.3,0.6c-0.1,0.1 -0.2,0.1 -0.3,0c-0.1,-0.1 -0.2,-0.2 -0.1,-0.3c0.2,-0.9 0,-1.6 -0.1,-2.1c0,0 0,0 0,0c0,0 0,0 0,0c-0.3,0.5 -0.6,1 -0.7,1.5c-0.2,0.5 -0.2,1 -0.2,1.4c0,0.7 0.1,1.1 0.2,1.2" class="st2"/>
    <path id="svg_33" d="m8.2,24.2c0,0 0,0 0,0c1.3,-0.2 2.2,-1.3 2.7,-2c0,0 0,0 0,0c0,0 0,0 0,0c-0.7,0.1 -1.3,0.4 -1.3,0.4c-0.1,0.1 -0.2,0.1 -0.3,0c-0.1,-0.1 -0.1,-0.2 -0.1,-0.3c0.3,-0.9 0.2,-1.6 0.2,-2.1c0,0 0,0 0,0c0,0 0,0 0,0c-1.7,1.9 -1.4,3.4 -1.2,4c0,0 0,0 0,0" class="st2"/>
    <path id="svg_34" d="m10,21.8c0,0 0,0 0,0c0.8,0 1.6,-0.5 2.1,-0.9c0.3,-0.2 0.5,-0.4 0.8,-0.7c0,0 0,0 0,0c0,0 0,0 0,0c-0.7,0 -1.3,0.2 -1.3,0.2c-0.1,0 -0.2,0 -0.3,-0.1c-0.1,-0.1 -0.1,-0.2 0,-0.3c0.4,-0.8 0.5,-1.6 0.5,-2c0,0 0,0 0,0c0,0 0,0 0,0c-0.5,0.4 -0.8,0.8 -1.1,1.3c-0.3,0.4 -0.5,0.9 -0.6,1.3c-0.2,0.6 -0.2,1 -0.1,1.2c-0.1,0 0,0 0,0" class="st2"/>
    <path id="svg_35" d="m15.2,18.4c-0.7,-0.1 -1.3,0.1 -1.3,0.1c-0.1,0 -0.2,0 -0.3,-0.1c-0.1,-0.1 -0.1,-0.2 0,-0.3c0.5,-0.8 0.6,-1.5 0.7,-2c0,0 0,0 0,0c0,0 0,0 0,0c-2,1.4 -2.1,2.9 -2.1,3.5c0,0 0,0 0,0c0,0 0.1,0 0.1,0c1.2,0.1 2.3,-0.7 2.9,-1.2c0,0.1 0,0.1 0,0c0,0 0,0 0,0" class="st2"/>
    <path id="svg_36" d="m17.7,17.2c-0.2,-0.1 -0.4,-0.1 -0.7,-0.1c-0.4,0 -0.7,0 -0.7,0l0,0c-0.1,0 -0.2,-0.1 -0.2,-0.2c0,-0.1 0,-0.2 0.1,-0.3c0.7,-0.6 1,-1.1 1.2,-1.5c0,0 0,0 0,0c0,0 0,0 0,0c-2.3,0.8 -2.8,2.1 -2.9,2.7c0,0 0,0 0,0c0.2,0.1 0.5,0.1 0.9,0.1c0.4,0 1,-0.1 1.6,-0.3c0.2,-0.1 0.5,-0.2 0.7,-0.4c0,0 0,0 0,0c0,0 0,0 0,0" class="st2"/>
    <path id="svg_37" d="m20.5,16.5c-0.6,-0.3 -1.3,-0.4 -1.3,-0.4c-0.1,0 -0.2,-0.1 -0.2,-0.2c0,-0.1 0,-0.2 0.1,-0.3c0.8,-0.4 1.1,-0.8 1.3,-1c0,0 0,0 0,0c0,0 0,0 0,0c-1.2,0.2 -2.1,0.6 -2.7,1.2c-0.3,0.3 -0.5,0.6 -0.5,0.8c0,0 0,0 0,0c0.5,0.2 1.1,0.3 1.6,0.3c0.3,0 0.6,0 0.9,-0.1c0.2,-0.1 0.5,-0.2 0.8,-0.3c0,0 0,0 0,0c0,0 0,0 0,0" class="st2"/>
    <path id="svg_38" d="m22.3,15.7c-0.1,0 -0.2,-0.1 -0.2,-0.3c0,-0.1 0.1,-0.2 0.2,-0.2c0.8,-0.2 1.2,-0.5 1.5,-0.7c0,0 0,0 0,0c0,0 0,0 0,0c-1.2,-0.1 -2.2,0.1 -2.9,0.6c-0.4,0.2 -0.6,0.5 -0.7,0.7c0,0 0,0 0,0c0.8,0.6 1.8,0.7 2.6,0.7c0.2,0 0.5,0 0.6,0c0,0 0,0 0,0c0,0 0,0 0,0c-0.4,-0.6 -1.1,-0.8 -1.1,-0.8" class="st2"/>
    <path id="svg_39" d="m25.3,15.9c-0.1,-0.1 -0.1,-0.2 -0.1,-0.3c0,-0.1 0.1,-0.2 0.2,-0.2c0.8,-0.1 1.3,-0.3 1.6,-0.4c0,0 0,0 0,0s0,0 0,0c-1.1,-0.3 -2.1,-0.3 -2.9,0c-0.4,0.2 -0.7,0.4 -0.8,0.5c0,0 0,0 0,0c1,1.2 2.3,1.4 3,1.4l0,0c0,0 0,0 0,0c0,0 0,0 0,0c-0.4,-0.6 -0.9,-1 -1,-1" class="st2"/>
    <path id="svg_40" d="m32.9,19.7c0,0 0,0 0,0c0,-0.3 0,-0.8 -0.2,-1.3c-0.3,-0.9 -1.1,-1.5 -2.1,-1.9c0,0 0,0 0,0c0,0 0,0 0,0c0.1,0.4 0.4,1 0.8,1.6c0.1,0.1 0.1,0.2 0,0.3c-0.1,0.1 -0.2,0.1 -0.3,0.1c0,0 -0.6,-0.2 -1.3,0c0,0 0,0 0,0c0,0 0,0 0,0c0.7,0.4 1.9,1.2 3,1.2c0,0 0.1,0 0.1,0" class="st2"/>
    <path id="svg_41" d="m30.5,17.8c0,0 0,0 0,0c-0.6,-0.6 -1.3,-0.9 -2.2,-0.9c-0.3,0 -0.6,0.1 -0.9,0.2c0,0 0,0 0,0c0,0 0,0 0,0c0.7,0.5 1.4,0.8 2.2,0.8c0,0 0.1,0 0.1,0c0.3,0.1 0.6,0 0.8,-0.1c0,0 0,0 0,0" class="st2"/>
    <path id="svg_42" d="m26.2,15.9c0,0 0,0 0,0c0.5,0.3 1,0.5 1.6,0.5c0.3,0 0.5,0 0.8,-0.1c0.5,-0.1 0.9,-0.2 1.2,-0.3c0,0 0,0 0,0c0,0 0,0 0,0c-0.4,-0.2 -0.9,-0.4 -1.3,-0.5c-0.5,-0.1 -0.9,-0.1 -1.4,0c-0.3,0.1 -0.6,0.3 -0.9,0.4c0,0 0,0 0,0" class="st2"/>
   </g>
   <path id="svg_43" d="m39.6,39.2c0,-3.1 -0.5,-6 -1.4,-8.8c-0.9,-2.7 -2.1,-5.1 -3.7,-7.2c-1.6,-2.1 -3.4,-3.7 -5.4,-4.8c-2.1,-1.2 -4.3,-1.8 -6.6,-1.8s-4.5,0.6 -6.6,1.8c-2,1.1 -3.9,2.8 -5.4,4.8c-1.6,2.1 -2.8,4.5 -3.7,7.2c-0.9,2.8 -1.4,5.8 -1.4,8.8l34.2,0z" class="st3"/>
   <polygon id="svg_44" points="22.5,33.7 26.5,33.7 28.1,32.2 26.2,24.4 24.3,22.3 22,21.9 19.2,23.2 18.2,25.1 19.1,26.5 17.4,29.7    16.9,32.8 17.8,33.6  " class="st4"/>
   <polygon id="svg_45" points="21.4,14.2 21.4,14.2 21.4,14.2  " class="st5"/>
   <path id="svg_46" d="m18,14.7l0,0z" class="st5"/>
   <polygon id="svg_47" points="18,14.7 18,14.7 18,14.7  " class="st5"/>
   <path id="svg_48" d="m26.9,66.6c-1.6,-0.3 -2.8,-1.2 -3.3,-1.7c-0.1,0.1 -0.1,0.1 -0.2,0.2c0.1,0.5 0.6,1.6 2.6,2.1c0.4,-0.2 0.7,-0.4 0.9,-0.6" class="st6"/>
   <path id="svg_49" d="m21.4,64.9c-0.5,0.5 -1.7,1.4 -3.3,1.7c0.2,0.2 0.5,0.4 0.9,0.6c2,-0.5 2.5,-1.7 2.6,-2.1c-0.1,-0.1 -0.2,-0.2 -0.2,-0.2" class="st6"/>
   <path id="svg_50" d="m42.7,43.5c0,-0.1 0,-0.2 -0.1,-0.3c-0.1,-0.1 -0.2,-0.1 -0.2,-0.1c0.1,-0.1 0.1,-0.3 0.2,-0.5c0.3,-0.7 0.4,-1.5 0.4,-2.4c0,-0.1 -0.1,-0.2 -0.2,-0.3c-0.1,0 -0.2,-0.1 -0.2,-0.1c0.1,-0.1 0.1,-0.3 0.1,-0.4c0.2,-0.7 0.2,-1.5 0.2,-2.4c0,-0.1 -0.1,-0.2 -0.2,-0.3c-0.1,0 -0.2,-0.1 -0.2,0c0,-0.2 0.1,-0.3 0.1,-0.5c0.1,-0.7 0.1,-1.5 -0.1,-2.4c0,-0.1 -0.1,-0.2 -0.2,-0.3c-0.1,0 -0.1,0 -0.2,0c0,-0.1 0,-0.2 0.1,-0.4c0.1,-0.7 0,-1.5 -0.2,-2.4c0,-0.1 -0.1,-0.2 -0.2,-0.2c-0.1,0 -0.2,0 -0.3,0l0,0c0,-0.2 0,-0.4 0,-0.6c0,-0.7 -0.2,-1.5 -0.5,-2.3c0,-0.1 -0.1,-0.2 -0.3,-0.2c-0.1,0 -0.2,0 -0.3,0.1c0,-0.2 0,-0.4 0,-0.5c-0.1,-0.7 -0.4,-1.5 -0.8,-2.3c-0.1,-0.1 -0.2,-0.2 -0.3,-0.2c-0.1,0 -0.2,0 -0.3,0.1c0,-0.2 -0.1,-0.3 -0.1,-0.5c-0.2,-0.7 -0.5,-1.4 -1,-2.2c-0.1,-0.1 -0.2,-0.2 -0.3,-0.2c-0.1,0 -0.2,0.1 -0.3,0.2c-0.1,-0.2 -0.1,-0.4 -0.2,-0.6c-0.3,-0.7 -0.8,-1.3 -1.4,-2c-0.1,-0.1 -0.2,-0.1 -0.3,-0.1c-0.1,0 -0.2,0.1 -0.2,0.1c-0.1,-0.2 -0.2,-0.4 -0.3,-0.6c-0.4,-0.6 -0.9,-1.2 -1.6,-1.7c-0.1,-0.1 -0.2,-0.1 -0.3,-0.1c-0.1,0 -0.2,0.1 -0.2,0.2c-0.5,-0.6 -1.1,-1.1 -1.9,-1.3c0.1,0 0.3,0 0.4,0c1,0.1 1.6,-0.1 1.7,-0.2c0.2,-0.1 0.3,-0.3 0.3,-0.5c0,-0.2 -0.2,-0.4 -0.4,-0.4c-1.1,-0.1 -1.4,-0.3 -1.9,-0.5c-0.1,-0.1 -0.2,-0.1 -0.3,-0.2l2.5,-0.4c0.2,0 0.4,-0.2 0.4,-0.4c0,-0.2 -0.2,-0.4 -0.4,-0.4l-2.4,-0.4c0.3,-0.1 0.6,-0.2 1,-0.3c0.9,-0.3 1.5,-0.8 1.5,-0.8c0.2,-0.1 0.2,-0.4 0.1,-0.6c-0.1,-0.2 -0.3,-0.3 -0.5,-0.2c-1,0.4 -1.4,0.3 -2,0.2c-0.1,0 -0.2,0 -0.3,0l2.1,-1.3c0.2,-0.1 0.3,-0.3 0.2,-0.5c-0.3,0.2 -0.5,0.1 -0.8,0.1l-2.4,0.6c0.3,-0.1 0.5,-0.3 0.8,-0.6c0.7,-0.6 1.1,-1.3 1.1,-1.3c0.1,-0.2 0.1,-0.4 -0.1,-0.6c-0.2,-0.1 -0.4,-0.1 -0.6,0c-0.8,0.7 -1.2,0.8 -1.8,1c-0.1,0 -0.2,0.1 -0.3,0.1l1.5,-2c0.1,-0.2 0.1,-0.4 0,-0.6c-0.2,-0.2 -0.4,-0.2 -0.6,0l-2,1.5c0.1,-0.3 0.3,-0.6 0.5,-0.9c0.4,-0.9 0.5,-1.6 0.5,-1.6c0,-0.2 -0.1,-0.4 -0.3,-0.5c-0.2,-0.1 -0.4,0 -0.5,0.2c-0.4,1 -0.8,1.2 -1.2,1.6c-0.1,0.1 -0.2,0.1 -0.2,0.2l0.6,-2.4c0.1,-0.2 -0.1,-0.4 -0.3,-0.5c-0.2,-0.1 -0.4,0 -0.5,0.2l-1.3,2.1c0,-0.3 0.1,-0.6 0.1,-1c-0.1,-0.8 -0.3,-1.5 -0.3,-1.5c-0.1,-0.2 -0.3,-0.3 -0.5,-0.3c-0.2,0 -0.4,0.2 -0.4,0.4c0,1.1 -0.3,1.4 -0.5,1.9c0,0.1 -0.1,0.2 -0.1,0.3l-0.4,-2.4c0,-0.2 -0.2,-0.4 -0.4,-0.4l0,0c-0.2,0 -0.4,0.2 -0.4,0.4l-0.3,2.4c-0.1,-0.3 -0.2,-0.6 -0.3,-0.9c-0.3,-0.9 -0.8,-1.5 -0.8,-1.5c-0.1,-0.2 -0.4,-0.2 -0.6,-0.1c-0.2,0.1 -0.3,0.3 -0.2,0.5c0.4,1 0.3,1.4 0.2,2c0,0.1 0,0.2 0,0.3l-1.3,-2.1c-0.1,-0.2 -0.3,-0.3 -0.5,-0.2c-0.2,0.1 -0.3,0.3 -0.3,0.5l0.6,2.4c-0.2,-0.2 -0.4,-0.5 -0.6,-0.7c-0.6,-0.7 -1.3,-1.1 -1.3,-1.1c-0.2,-0.1 -0.4,-0.1 -0.6,0.1c-0.1,0.2 -0.1,0.4 0,0.6c0.7,0.8 0.8,1.2 1,1.8c0,0.1 0.1,0.2 0.1,0.3l-2,-1.5c-0.2,-0.1 -0.4,-0.1 -0.6,0c-0.2,0.2 -0.2,0.4 0,0.6l1.5,2c-0.3,-0.1 -0.6,-0.3 -0.9,-0.5c-0.9,-0.4 -1.6,-0.5 -1.6,-0.5c-0.2,0 -0.4,0.1 -0.5,0.3c-0.1,0.2 0,0.4 0.2,0.5c1,0.4 1.2,0.8 1.6,1.2c0.1,0.1 0.1,0.2 0.2,0.3l-2.3,-0.6c-0.2,-0.1 -0.4,0.1 -0.5,0.3c-0.1,0.2 0,0.4 0.2,0.5l2.1,1.3c-0.3,0 -0.6,-0.1 -1,-0.1c-1,-0.1 -1.6,0.1 -1.7,0.2c-0.2,0.1 -0.3,0.3 -0.3,0.5c0,0.2 0.2,0.4 0.4,0.4c1.1,0 1.4,0.3 1.9,0.5c0.1,0 0.2,0.1 0.3,0.2l-2.5,0.4c-0.2,0 -0.4,0.2 -0.4,0.4c0,0.2 0.2,0.4 0.4,0.4l2.5,0.4c-0.3,0.1 -0.6,0.2 -1,0.3c-0.9,0.3 -1.5,0.8 -1.5,0.8c-0.2,0.1 -0.2,0.4 -0.1,0.6c0.1,0.2 0.3,0.3 0.5,0.2c0.6,-0.2 1,-0.3 1.3,-0.3c-0.5,0.5 -0.9,0.8 -1.1,1.1c-0.1,0.1 -0.2,0.3 -0.3,0.4c0,-0.1 -0.1,-0.1 -0.2,-0.1c-0.1,0 -0.2,0 -0.3,0.1c-0.7,0.5 -1.3,1.1 -1.7,1.7c-0.1,0.2 -0.2,0.4 -0.3,0.6c-0.1,-0.1 -0.1,-0.1 -0.2,-0.2c-0.1,0 -0.2,0 -0.3,0.1c-0.6,0.6 -1.1,1.3 -1.4,2c-0.1,0.2 -0.1,0.4 -0.2,0.5c-0.1,-0.1 -0.1,-0.1 -0.2,-0.1c-0.1,0 -0.2,0 -0.3,0.1c-0.5,0.7 -0.9,1.4 -1.1,2.1c-0.1,0.2 -0.1,0.4 -0.1,0.6c-0.1,-0.1 -0.2,-0.1 -0.3,-0.1c-0.1,0 -0.2,0.1 -0.3,0.2c-0.4,0.8 -0.7,1.5 -0.8,2.3c0,0.2 0,0.4 0,0.5c-0.1,-0.1 -0.2,-0.1 -0.3,-0.1c-0.1,0 -0.2,0.1 -0.2,0.2c-0.3,0.8 -0.5,1.6 -0.5,2.3c0,0.2 0,0.4 0,0.5c-0.1,-0.1 -0.2,-0.1 -0.3,0c-0.1,0 -0.2,0.1 -0.2,0.2c-0.2,0.9 -0.3,1.7 -0.2,2.4c0,0.1 0,0.3 0.1,0.4c-0.1,0 -0.1,0 -0.2,0c-0.1,0 -0.2,0.1 -0.2,0.3c-0.2,0.9 -0.2,1.7 -0.1,2.4c0,0.2 0.1,0.4 0.1,0.5c0,0 -0.1,0 -0.1,0c-0.1,0.1 -0.2,0.2 -0.2,0.3c-0.1,0.9 -0.1,1.7 0.1,2.4c0,0.2 0.1,0.3 0.1,0.5c-0.1,0 -0.2,0 -0.2,0.1c0.1,-0.1 0,0 0,0.1c0,0.9 0.1,1.7 0.3,2.4c0.1,0.2 0.1,0.4 0.2,0.6c0,0 0,0 0,0c-0.1,0 -0.2,0 -0.3,0.1c-0.1,0.1 -0.1,0.2 -0.1,0.3c0.1,0.9 0.4,1.6 0.7,2.3c0.1,0 0.2,0.2 0.2,0.3c-0.1,0 -0.1,0 -0.2,0.1c-0.1,0.1 -0.1,0.2 -0.1,0.3c0.2,0.9 0.5,1.6 0.9,2.2c0.1,0.1 0.2,0.3 0.3,0.4c-0.1,0 -0.2,0.1 -0.2,0.1c-0.1,0.1 -0.1,0.2 0,0.3c0.3,0.8 0.7,1.5 1.2,2.1c0.1,0.2 0.2,0.3 0.3,0.5c-0.1,0 -0.2,0.1 -0.2,0.2c-0.1,0.1 -0.1,0.2 0,0.3c0.4,0.8 0.9,1.4 1.4,2c0.1,0.1 0.2,0.2 0.3,0.3c-0.1,0 -0.1,0.1 -0.2,0.2c0,0.1 0,0.2 0,0.3c0.5,0.7 1,1.3 1.6,1.8c0.2,0.1 0.4,0.3 0.5,0.4c0,0 -0.1,0 -0.1,0c-0.1,0 -0.2,0.1 -0.2,0.2c0,0.1 0,0.2 0.1,0.3c0.6,0.6 1.2,1.1 1.9,1.5c0.5,0.3 1,0.5 1.5,0.6c0.4,0.1 0.9,0.1 1.2,0c0,0 0,0 0.1,0c1.1,0.8 2.2,1.4 3.4,1.9c1,0.4 2,0.7 3,1c0.2,0 0.4,0.1 0.6,0.1c-0.4,-0.2 -0.2,-0.4 -0.5,-0.7c-0.1,-0.1 -0.7,-0.2 -0.8,-0.2c-0.7,-0.2 -1.4,-0.4 -2.1,-0.7c-1.1,-0.5 -2.2,-1.1 -3.3,-1.8c0,0 0,0 0,0c0,-0.4 0,-0.7 -0.1,-1.1c0.7,0.6 1.4,1.1 2.1,1.5c1,0.6 2,1 3.1,1.3c0,-0.1 0.4,-0.1 0.4,-0.2c0,-0.2 -0.3,-0.4 -0.2,-0.5c-1,-0.3 -1.9,-0.7 -2.9,-1.2c-2,-1.1 -3.8,-2.7 -5.3,-4.7c-0.5,-0.7 -1,-1.5 -1.5,-2.2c1.2,-0.5 3.8,-1.7 6.1,-2.9c0,0.1 0,0.2 0.1,0.3c0.2,0.5 0.7,0.6 1.1,0.7c0.1,0 0.3,0 0.4,0c0.1,0.4 0.5,0.6 1,0.8c0.2,0.1 0.4,0.1 0.5,0.1c0.1,0.2 0.2,0.4 0.4,0.5c0.5,0.3 1.1,0.3 1.4,0.2c0.2,0.2 0.5,0.4 0.8,0.5c0.1,0 0.2,0 0.3,0c0.2,0 0.5,-0.1 0.7,-0.1l0,4.1c0,0.3 0.2,0.5 0.5,0.5c0.3,0 0.5,-0.2 0.5,-0.5l0,-4.3c0.5,0.1 1,0 1.3,-0.1c0.2,-0.1 0.4,-0.2 0.6,-0.3c0.5,0.1 1,-0.1 1.4,-0.4c0.1,-0.1 0.2,-0.3 0.3,-0.4c0.7,0 1.2,-0.3 1.4,-0.6c0.1,-0.1 0.2,-0.3 0.3,-0.4c0.5,0 0.8,-0.2 1.1,-0.4c0.1,-0.1 0.2,-0.3 0.3,-0.4c1.9,1.4 4.8,2.7 6.1,3.3c-0.4,0.7 -0.9,1.4 -1.4,2.1c-1.5,2 -3.3,3.6 -5.3,4.7c-0.9,0.5 -1.9,0.9 -2.9,1.2c0.1,0.1 -0.2,0.3 -0.1,0.5c0,0.1 0.3,0.2 0.3,0.2c1.1,-0.3 2.1,-0.7 3.1,-1.3c0.8,-0.4 1.5,-1 2.2,-1.5c-0.1,0.4 -0.1,0.7 -0.1,1.1c0,0 0,0 0,0.1c-0.3,0.2 -1.2,0.9 -2.4,1.5c-0.9,0.5 -1.9,0.8 -2.9,1.1c0,0 -0.1,0 -0.1,0c0,0.1 -0.5,0.1 -0.6,0.2c-0.3,0.4 -0.3,0.6 -0.7,0.7c0.5,-0.1 1.1,-0.2 1.6,-0.3c1,-0.3 2,-0.6 3,-1.1c1.3,-0.6 2.2,-1.3 2.5,-1.5c0,0 0,0 0.1,0c0.4,0.1 0.8,0.1 1.2,0c0.5,-0.1 1,-0.3 1.5,-0.6c0.6,-0.4 1.2,-0.9 1.9,-1.5c0.1,-0.1 0.1,-0.2 0.1,-0.3c0,-0.1 -0.1,-0.2 -0.2,-0.2c0,0 0,0 -0.1,0c0.2,-0.1 0.4,-0.2 0.6,-0.4c0.6,-0.5 1.1,-1.1 1.6,-1.8c0.1,-0.1 0.1,-0.2 0,-0.3c0,-0.1 -0.1,-0.1 -0.2,-0.2c0.1,-0.1 0.2,-0.2 0.3,-0.3c0.5,-0.5 1,-1.2 1.4,-2c0.1,-0.1 0,-0.2 0,-0.3c-0.1,-0.1 -0.1,-0.2 -0.3,-0.2c0.1,-0.1 0.2,-0.3 0.4,-0.4c0.5,-0.6 0.9,-1.3 1.2,-2.1c0,-0.1 0,-0.2 0,-0.3c-0.1,-0.1 -0.2,-0.1 -0.3,-0.2l0,0c0.1,-0.1 0.2,-0.3 0.3,-0.4c0.4,-0.6 0.7,-1.4 0.9,-2.2c0,-0.1 0,-0.2 -0.1,-0.3c-0.1,-0.1 -0.2,-0.1 -0.3,-0.1c0.1,-0.2 0.2,-0.3 0.3,-0.5c0.3,-1.1 0.5,-1.8 0.6,-2.7m-0.4,-2.7c0,0 0,0 0,0c0,0.6 -0.1,1.2 -0.3,1.6c-0.2,0.5 -0.4,0.9 -0.7,1.3c-0.4,0.4 -0.7,0.6 -0.9,0.7c0,0 0,0 0,0c0,0 0,0 0,0c-0.5,-0.7 -0.7,-1.5 -0.7,-2.4c0,-0.3 0,-0.6 0.1,-0.9c0,0 0,0 0,0c0,0 0,0 0,0c0.4,0.5 0.7,1.2 0.7,1.2c0,0.1 0.1,0.2 0.2,0.2c0.1,0 0.2,-0.1 0.2,-0.1c0.5,-0.8 1,-1.4 1.4,-1.6c0,0 0,0 0,0m0,-3.1c0,0 0,0 0,0c0,0 0,0 0,0c0,0.6 0,1.2 -0.1,1.7c-0.1,0.5 -0.3,1 -0.6,1.3c-0.3,0.5 -0.7,0.7 -0.8,0.8c0,0 0,0 0,0c0,0 0,0 0,0c-0.8,-1 -0.9,-2.4 -0.9,-3.1c0,0 0,0 0,0c0,0 0,0 0,0c0.5,0.5 0.8,1.1 0.8,1.1c0,0.1 0.1,0.2 0.2,0.1c0.1,0 0.2,-0.1 0.2,-0.2c0.3,-0.9 0.8,-1.4 1.2,-1.7m-0.4,-3.2c0,0 0,0 0,0c0.1,0 0.1,0 0,0c0.1,0.6 0.1,1.2 0,1.7c-0.1,0.5 -0.2,1 -0.5,1.4c-0.3,0.5 -0.6,0.8 -0.7,0.9c0,0 0,0 0,0c0,0 0,0 0,0c-0.8,-0.7 -1.1,-2.2 -1.2,-3c0,0 0,0 0,0c0,0 0,0 0,0c0.5,0.4 0.8,1 0.8,1c0.1,0.1 0.2,0.1 0.3,0.1c0.1,0 0.2,-0.1 0.2,-0.2c0.4,-1 0.8,-1.6 1.1,-1.9m-0.5,-3c0,0 0,0 0,0c0.1,0 0.1,0 0,0c0.1,0.6 0.2,1.2 0.1,1.7c-0.1,0.5 -0.2,1 -0.4,1.4c-0.2,0.5 -0.5,0.8 -0.7,0.9c0,0 0,0 0,0c0,0 0,0 0,0c-0.7,-0.6 -1,-1.5 -1.2,-2.1c-0.1,-0.3 -0.1,-0.6 -0.2,-0.9c0,0 0,0 0,0c0,0 0,0 0,0c0.5,0.4 0.9,1 0.9,1c0.1,0.1 0.2,0.1 0.3,0.1c0.1,0 0.2,-0.1 0.2,-0.2c0.3,-0.9 0.7,-1.6 1,-1.9m-24,0.2c0,0 0,-0.1 0,-0.1c0.4,-2.1 1.2,-3.5 1.8,-4.3c0.5,-0.6 0.9,-1 1.1,-1.2c0.1,0 0.1,-0.1 0.2,-0.2c0.2,-0.2 0.2,-0.5 0.1,-0.7c-0.2,-0.2 -0.5,-0.3 -0.7,-0.1c0,0 -0.1,0.1 -0.2,0.2c-0.5,0.3 -0.7,0.2 -0.8,0.2c-0.1,-0.1 -0.2,-0.3 -0.2,-0.5c0.1,-0.4 0.6,-1 0.8,-1.2c0,0 0,0 0,0c1,-1.2 2.6,-1.2 2.7,-1.2c0,0 0,0 0,0c0,0 0.5,0 1.1,0.2c0.9,0.3 1.5,0.9 2,1.8c0.6,1.2 1.1,2.5 1.5,3.8c-0.9,-0.3 -1.6,-0.9 -1.6,-0.9c-0.2,-0.2 -0.5,-0.1 -0.7,0.1c-0.1,0.1 -0.1,0.2 -0.1,0.4c0,0.1 0.1,0.2 0.2,0.3c0,0 1.2,1 2.5,1.3c0.1,0.5 0.2,0.9 0.3,1.5c-0.4,-0.2 -0.9,-0.4 -1.4,-0.5c-0.3,-0.1 -0.6,-0.1 -0.8,-0.2c-0.9,-0.4 -1.7,-1 -1.7,-1c-0.2,-0.4 -0.5,-0.4 -0.6,-0.2c-0.2,0.2 -0.1,0.5 0.1,0.7c0,0 0.9,0.7 2,1.1c0.3,0.1 0.6,0.2 0.9,0.3c1.2,0.3 1.7,0.5 1.7,1.1c0,0.1 -0.1,0.2 -0.1,0.2c-0.4,0.4 -1.2,0.4 -1.5,0.4c0,0 0,0 0,0l-1.1,0c-0.2,0 -1.3,-0.1 -2.3,-0.7c-2.7,-1.5 -3.8,-1.2 -5.2,-0.6m4.3,1.4l-3.4,0c-0.3,0 -0.6,-0.1 -0.7,-0.3c0,0 -0.1,-0.1 -0.1,-0.1c1.4,-0.6 2.1,-0.8 4.2,0.4m1.3,6.1l0,-5.1l1.7,0c0,0 0,0 0,0c0,0 0,0 0,0l1,0c0,0 0.1,0 0.1,0c0.1,0 0.4,0 0.6,-0.1c0.6,-0.1 1.1,-0.3 1.4,-0.7c0.1,-0.1 0.3,-0.4 0.4,-0.6c0,0 0,-0.1 0,-0.1c0.1,-0.2 0.1,-0.5 0,-0.9l0,-0.1c-0.3,-2 -0.7,-4.6 -2.2,-7.6c-1.3,-2.6 -3.8,-2.5 -4,-2.4c-0.2,0 -2.1,0.1 -3.3,1.5c-0.1,0.1 -0.9,0.9 -1,1.7c-0.1,0.6 0.1,1.2 0.6,1.5c0.1,0 0.2,0.1 0.3,0.1c-0.8,1 -1.7,2.6 -2.2,5c-0.1,0.4 -0.1,0.8 -0.1,1.1c0,0 0,0.1 0,0.1c0.1,0.4 0.2,0.7 0.4,0.9c0.2,0.3 0.7,0.6 1.5,0.6l3.6,0l0,5.1l0,3.1c-1,0 -1.7,0.3 -2.6,1c-1.3,0.9 -5.6,1.7 -12.8,2.5c-0.5,-2.1 -0.8,-4.4 -0.8,-6.6c0,-3 0.4,-5.9 1.3,-8.7c0.8,-2.6 2.1,-5 3.6,-7.1c1.5,-2 3.3,-3.6 5.3,-4.7c2.1,-1.1 4.2,-1.7 6.5,-1.7c2.2,0 4.4,0.6 6.5,1.7c2,1.1 3.8,2.7 5.3,4.7c1.5,2 2.8,4.4 3.6,7.1c0.9,2.7 1.3,5.7 1.3,8.7c0,2.3 -0.3,4.6 -0.8,6.7c-4.2,-0.2 -9.4,-1.9 -9.5,-1.9c-0.4,-0.1 -0.7,-0.2 -1,-0.4c-1.1,-0.4 -1.9,-0.7 -2.8,-0.6c-0.1,0 -0.1,0 -0.2,0c-0.5,-0.3 -1,-0.4 -1.7,-0.6l0,-3.2zm6.9,-23.2c-0.3,0.1 -0.7,0.2 -1.2,0.3c-0.3,0.1 -0.6,0.1 -0.8,0.1c-0.6,0 -1.2,-0.2 -1.6,-0.5c0,0 0,0 0,0c0,0 0,0 0,0c0.2,-0.1 0.5,-0.3 1,-0.4c0.5,-0.1 0.9,-0.1 1.4,0c0.3,0.1 0.7,0.2 1.2,0.5c0,0 0,0 0,0c0,0 0,0 0,0m0.6,1.8c0,0 0,0 0,0c0,0 0,0 0,0c-0.2,0.1 -0.5,0.2 -0.8,0.2c0,0 -0.1,0 -0.1,0c-0.8,0 -1.5,-0.3 -2.2,-0.8c0,0 0,0 0,0c0,0 0,0 0,0c0.3,-0.1 0.6,-0.2 0.9,-0.2c0.9,-0.1 1.6,0.2 2.2,0.8m-3.5,-2.8c-0.3,0.1 -0.8,0.3 -1.6,0.4c-0.1,0 -0.2,0.1 -0.2,0.2c0,0.1 0,0.2 0.1,0.3c0,0 0.6,0.4 1,1c0,0 0,0 0,0c0,0 0,0 0,0l0,0c-0.7,0 -2.1,-0.2 -3,-1.4c0,0 0,0 0,0c0.2,-0.1 0.4,-0.4 0.8,-0.5c0.8,-0.3 1.8,-0.3 2.9,0c0,0 0,0 0,0c0,0 0,0 0,0m-3.2,-0.5c-0.3,0.2 -0.7,0.5 -1.5,0.7c-0.1,0 -0.2,0.1 -0.2,0.2c0,0.1 0.1,0.2 0.2,0.3c0,0 0.6,0.2 1.2,0.7c0,0 0,0 0,0c0,0 0,0 0,0c-0.2,0 -0.4,0 -0.6,0c-0.8,0 -1.8,-0.1 -2.6,-0.7c0,0 0,0 0,0c0.1,-0.2 0.3,-0.4 0.7,-0.7c0.6,-0.4 1.6,-0.6 2.8,-0.5c0,-0.1 0,-0.1 0,0c0,0 0,0 0,0m-3.3,0c-0.2,0.3 -0.6,0.6 -1.3,1c-0.1,0 -0.2,0.2 -0.1,0.3c0,0.1 0.1,0.2 0.2,0.2c0,0 0.7,0.1 1.3,0.4c0,0 0,0 0,0c0,0 0,0 0,0c-0.3,0.1 -0.6,0.2 -0.9,0.2c-0.3,0 -0.6,0.1 -0.9,0.1c-0.5,0 -1,-0.1 -1.6,-0.3c0,0 0,0 0,0c0.1,-0.2 0.2,-0.5 0.5,-0.8c0.6,-0.5 1.6,-0.9 2.8,-1.1c0,0 0,0 0,0c0,0 0,0 0,0m-4.3,2.1c-0.1,0.1 -0.1,0.2 -0.1,0.3c0,0.1 0.1,0.2 0.2,0.2l0,0c0,0 0.3,0 0.7,0c0.3,0 0.5,0.1 0.7,0.1c0,0 0,0 0,0c0,0 0,0 0,0c-0.3,0.1 -0.5,0.3 -0.8,0.4c-0.6,0.2 -1.1,0.3 -1.6,0.3c-0.4,0 -0.7,-0.1 -0.9,-0.1c0,0 0,0 0,0c0.1,-0.5 0.6,-1.9 2.9,-2.7c0,0 0,0 0,0c0,0 0,0 0,0c-0.1,0.3 -0.4,0.9 -1.1,1.5m23.6,13.8c0.1,-0.9 0.4,-1.6 0.6,-2c0,0 0,0 0,0c0,0 0,0 0,0c0.2,0.6 0.3,1.1 0.3,1.6c0,0.5 0,1 -0.2,1.4c-0.2,0.5 -0.4,0.9 -0.5,1c0,0 0,0 0,0c0,0 0,0 0,0c-0.7,-0.4 -1.2,-1.1 -1.5,-1.9c-0.1,-0.3 -0.2,-0.6 -0.3,-0.8c0,0 0,0 0,0c0,0 0,0 0,0c0.6,0.3 1.1,0.9 1.1,0.9c0.1,0.1 0.2,0.1 0.3,0.1c0.2,-0.1 0.2,-0.2 0.2,-0.3m-1,-2.8c0,-0.9 0.2,-1.6 0.4,-2c0,0 0,0 0,0c0,0 0,0 0,0c0.2,0.5 0.4,1.1 0.5,1.6c0.1,0.5 0.1,1 0,1.5c-0.1,0.5 -0.3,0.9 -0.4,1c0,0 0,0 0,0c0,0 0,0 0,0c-0.7,-0.3 -1.3,-0.9 -1.7,-1.8c-0.1,-0.3 -0.2,-0.5 -0.3,-0.8c0,0 0,0 0,0c0,0 0,0 0,0c0.6,0.3 1.1,0.7 1.1,0.8c0.1,0.1 0.2,0.1 0.3,0c0,-0.1 0.1,-0.2 0.1,-0.3m-1.4,-2.5l0,0c0.1,-0.1 0.1,-0.2 0.1,-0.3c-0.1,-0.9 0,-1.6 0.2,-2.1c0,0 0,0 0,0c0,0 0,0 0,0c0.3,0.5 0.5,1 0.7,1.5c0.1,0.5 0.2,1 0.1,1.5c-0.1,0.5 -0.2,0.9 -0.3,1.1c0,0 0,0 0,0c0,0 0,0 0,0c-0.8,-0.3 -1.4,-0.8 -1.9,-1.6c-0.2,-0.2 -0.3,-0.5 -0.4,-0.8c0,0 0,0 0,0c0,0 0,0 0,0c0.7,0.2 1.2,0.6 1.3,0.6c-0.1,0.2 0.1,0.2 0.2,0.1m-2,-2.5c0.1,0.1 0.2,0.1 0.3,0c0.1,-0.1 0.1,-0.2 0.1,-0.3c-0.3,-0.8 -0.2,-1.6 -0.1,-2.1c0,0 0,0 0,0c0,0 0,0 0,0c0.4,0.5 0.7,0.9 0.9,1.4c0.2,0.5 0.3,1 0.4,1.4c0,0.5 -0.1,0.9 -0.1,1.1c0,0 0,0 0,0c0,0 0,0 0,0c-0.8,-0.1 -1.5,-0.6 -2.1,-1.3c-0.2,-0.2 -0.4,-0.5 -0.6,-0.7c0,0 0,0 0,0c0,0 0,0 0,0c0.6,0.1 1.2,0.5 1.2,0.5m-1.9,-2.2c0.1,0 0.2,0 0.3,-0.1c0.1,-0.1 0.1,-0.2 0,-0.3c-0.4,-0.8 -0.5,-1.5 -0.5,-2c0,0 0,0 0,0c0,0 0,0 0,0c0.4,0.4 0.8,0.8 1.1,1.2c0.3,0.4 0.5,0.9 0.6,1.3c0.1,0.5 0.1,1 0.1,1.1c0,0 0,0 0,0c0,0 0,0 0,0c-0.9,0 -1.7,-0.5 -2.2,-0.9c-0.3,-0.2 -0.5,-0.4 -0.7,-0.7c0,0 0,0 0,0c0,0 0,0 0,0c0,0 0.1,0 0.1,0c0.6,0.2 1.2,0.4 1.2,0.4m-0.8,-2c0.2,0.5 0.2,1 0.2,1.3c0,0 0,0 0,0c0,0 -0.1,0 -0.1,0c-1.1,0 -2.3,-0.7 -3,-1.2c0,0 0,0 0,0c0,0 0,0 0,0c0.7,-0.1 1.3,0 1.3,0c0.1,0 0.2,0 0.3,-0.1c0.1,-0.1 0.1,-0.2 0,-0.3c-0.4,-0.5 -0.7,-1.1 -0.8,-1.6c0,0 0,0 0,0c0,0 0,0 0,0c1,0.4 1.8,1 2.1,1.9m-19.3,-3.1c0.1,0 0.1,0 0.2,-0.1c0.6,-0.2 1.2,-0.4 1.5,-0.4c0.7,-0.2 1.2,-0.5 1.2,-0.5c0.1,0 0.1,-0.1 0.1,-0.2c0,-0.1 -0.1,-0.1 -0.1,-0.1l-3.1,-0.4l3.1,-0.5c0.1,0 0.2,-0.1 0.2,-0.2c0,-0.1 -0.1,-0.2 -0.2,-0.2c0,0 -0.7,-0.1 -1.4,-0.4c-0.2,-0.1 -0.4,-0.2 -0.5,-0.3c-0.3,-0.1 -0.5,-0.3 -0.9,-0.4c0.1,0 0.1,0 0.2,0c0.7,0 1.3,0.1 1.6,0.2c0.7,0.1 1.3,0 1.3,0c0.1,0 0.1,-0.1 0.1,-0.1c0,-0.1 0,-0.1 -0.1,-0.2l-2.7,-1.6l3,0.8c0.1,0 0.2,0 0.2,-0.1c0,-0.1 0,-0.2 -0.1,-0.2c0,0 -0.6,-0.3 -1.1,-0.9c-0.1,-0.2 -0.3,-0.3 -0.4,-0.5c-0.2,-0.2 -0.4,-0.5 -0.7,-0.7c0.1,0 0.1,0 0.1,0.1c0.6,0.3 1.1,0.6 1.4,0.8c0.6,0.4 1.2,0.5 1.2,0.5c0.1,0 0.1,0 0.2,-0.1c0,-0.1 0,-0.1 0,-0.2l-1.9,-2.5l2.5,1.8c0.1,0.1 0.2,0 0.2,0c0.1,-0.1 0.1,-0.2 0,-0.2c0,-0.1 -0.4,-0.6 -0.7,-1.3c-0.1,-0.2 -0.1,-0.4 -0.2,-0.6c-0.1,-0.3 -0.2,-0.6 -0.3,-0.9c0,0 0.1,0.1 0.1,0.1c0.4,0.5 0.8,1 1,1.2c0.4,0.6 0.8,0.9 0.9,0.9c0.1,0 0.1,0 0.2,0c0.1,0 0.1,-0.1 0.1,-0.2l-0.8,-3l1.6,2.7c0,0.1 0.1,0.1 0.2,0.1c0.1,0 0.1,-0.1 0.1,-0.2c0,0 -0.2,-0.7 -0.1,-1.4c0,-0.2 0,-0.4 0,-0.6c0,-0.3 0.1,-0.6 0,-1c0,0.1 0,0.1 0.1,0.2c0.2,0.6 0.4,1.2 0.4,1.5c0.1,0.7 0.4,1.1 0.5,1.2c0,0.1 0.1,0.1 0.2,0.1c0.2,0.1 0.2,0 0.2,-0.1l0.4,-3l0.4,3c0,0.1 0.1,0.2 0.2,0.2c0.1,0 0.2,-0.1 0.2,-0.2c0,0 0.1,-0.7 0.4,-1.4c0.1,-0.2 0.2,-0.4 0.3,-0.5c0.1,-0.3 0.3,-0.5 0.4,-0.9c0,0.1 0,0.1 0,0.2c0,0.7 -0.1,1.3 -0.2,1.6c-0.1,0.7 0,1.3 0,1.3c0,0.1 0.1,0.1 0.1,0.1c0.1,0 0.1,0 0.2,-0.1l1.6,-2.7l-0.8,3c0,0.1 0,0.2 0.1,0.2c0.1,0 0.2,0 0.2,-0.1c0,-0.1 0.4,-0.6 0.9,-1.1c0.2,-0.1 0.3,-0.3 0.5,-0.4c0.2,-0.2 0.5,-0.4 0.7,-0.7c0,0 0,0.1 -0.1,0.1c-0.3,0.6 -0.6,1.1 -0.8,1.4c-0.4,0.6 -0.5,1.2 -0.5,1.2c0,0.1 0,0.1 0.1,0.2c0.1,0 0.1,0 0.2,0l2.5,-1.9l-1.8,2.5c-0.1,0.1 0,0.2 0,0.2c0.1,0.1 0.2,0.1 0.2,0c0,0 0.5,-0.4 1.3,-0.7c0.2,-0.1 0.4,-0.1 0.6,-0.2c0.3,-0.1 0.6,-0.2 0.9,-0.3c0,0 -0.1,0.1 -0.1,0.1c-0.5,0.4 -1,0.8 -1.2,1c-0.6,0.4 -0.9,0.9 -0.9,0.9c0,0.1 0,0.1 0,0.2c0,0.1 0.1,0.1 0.2,0.1l3,-0.8l-2.7,1.6c-0.1,0 -0.1,0.1 -0.1,0.2c0,0.1 0.1,0.1 0.2,0.1c0.1,0 0.7,-0.2 1.4,-0.1c0.2,0 0.4,0 0.6,0c0.3,0 0.6,0.1 1,0c-0.1,0 -0.1,0 -0.2,0.1c-0.6,0.2 -1.2,0.4 -1.5,0.4c-0.7,0.2 -1.2,0.5 -1.2,0.5c-0.1,0 -0.1,0.1 -0.1,0.2c0,0.1 0.1,0.1 0.1,0.1l3.1,0.4l-3,0.8c-0.1,0 -0.2,0.1 -0.2,0.2c0,0.1 0.1,0.2 0.2,0.2c0.1,0 0.7,0.1 1.4,0.4c0.2,0.1 0.4,0.2 0.5,0.3c0.3,0.1 0.5,0.3 0.9,0.4c-0.1,0 -0.1,0 -0.2,0c-0.7,0 -1.3,-0.1 -1.6,-0.2l-0.1,0c-0.6,-0.2 -1.1,-0.4 -1.7,-0.4c0,0 0,0 0,0c0,-0.1 -0.1,-0.2 -0.2,-0.3c-0.8,-0.3 -1.6,-0.4 -2.3,-0.4c-0.3,0 -0.5,0 -0.7,0.1c0,0 0,-0.1 0,-0.1c-0.1,-0.1 -0.2,-0.2 -0.3,-0.2c-0.9,-0.1 -1.7,-0.1 -2.4,0c-0.3,0.1 -0.5,0.1 -0.8,0.2c0,-0.1 0,-0.1 -0.1,-0.2c-0.1,-0.1 -0.2,-0.1 -0.3,-0.1c-0.9,0.1 -1.7,0.3 -2.3,0.5c-0.2,0.1 -0.3,0.2 -0.5,0.2c0,-0.1 -0.1,-0.2 -0.1,-0.2c-0.1,-0.1 -0.2,-0.1 -0.3,-0.1c-0.9,0.2 -1.6,0.6 -2.2,1l0,0c-0.2,0 -0.3,0 -0.5,0c-0.1,0 -0.6,0 -0.6,0c-0.4,0 -0.7,-0.1 -1,0m0.8,0.8c0,0 0,0 0,0c0,0 0,0.1 0,0c0,0.5 -0.1,1.2 -0.6,2c-0.1,0.1 -0.1,0.2 0,0.3c0.1,0.1 0.2,0.1 0.3,0.1c0,0 0.7,-0.1 1.3,-0.1c0,0 0,0 0,0c0,0 0,0 0,0c-0.6,0.5 -1.7,1.2 -2.9,1.2c0,0 -0.1,0 -0.1,0c0,0 0,0 0,0c-0.1,-0.5 0,-2 2,-3.5m-4.2,4.5c0.1,-0.5 0.3,-0.9 0.6,-1.3c0.3,-0.4 0.7,-0.9 1.1,-1.3c0,0 0,0 0,0c0,0 0,0 0,0c0,0.5 -0.1,1.2 -0.5,2c0,0.1 0,0.2 0,0.3c0.1,0.1 0.2,0.1 0.3,0.1c0,0 0.6,-0.2 1.3,-0.2c0,0 0,0 0,0c0,0 0,0 0,0c-0.3,0.2 -0.5,0.5 -0.8,0.7c-0.5,0.4 -1.3,0.9 -2,0.9c0,0 -0.1,0 -0.1,0c0,0 0,0 0,0c0,-0.2 0,-0.6 0.1,-1.2m-0.7,-0.3c0,0 0,0 0,0c0,0 0,0 0,0c0.1,0.5 0.2,1.2 -0.1,2.1c0,0.1 0,0.2 0.1,0.3c0.1,0.1 0.2,0.1 0.3,0c0,0 0.6,-0.4 1.3,-0.4c0,0 0,0 0,0c0,0 0,0 0,0c-0.5,0.7 -1.4,1.8 -2.7,2c0,0 0,0 0,0c0,0 0,0 0,0c-0.2,-0.7 -0.5,-2.2 1.1,-4m-2.7,4c0.2,-0.5 0.4,-1 0.7,-1.5c0,0 0,0 0,0c0,0 0,0 0,0c0.1,0.4 0.3,1.2 0.1,2.1c0,0.1 0,0.2 0.1,0.3c0.1,0.1 0.2,0 0.3,0c0,0 0.5,-0.5 1.3,-0.6c0,0 0,0 0,0s0,0 0,0c-0.1,0.2 -0.3,0.5 -0.5,0.8c-0.6,0.8 -1.2,1.3 -2,1.5c0,0 0,0 0,0c0,0 0,0 0,0c-0.1,-0.1 -0.2,-0.5 -0.3,-1.1c0.1,-0.5 0.2,-1 0.3,-1.5m-1.5,2.8c0.1,-0.5 0.2,-1 0.5,-1.6c0,0 0,0 0,0l0,0c0,0 0,0 0,0c0.2,0.4 0.5,1.1 0.4,2c0,0.1 0.1,0.2 0.1,0.2c0.1,0 0.2,0 0.3,0c0,0 0.6,-0.5 1.2,-0.8c0,0 0,0 0,0c0,0 0,0 0,0c-0.1,0.3 -0.2,0.5 -0.3,0.8c-0.4,0.8 -1,1.4 -1.8,1.8c0,0 0,0 0,0c0,0 0,0 0,0c-0.1,-0.2 -0.3,-0.5 -0.4,-1c0,-0.4 0,-0.9 0,-1.4m-0.7,1.3c0,0 0,0 0,0c0,0 0,0 0,0c0.3,0.4 0.6,1 0.7,2c0,0.1 0.1,0.2 0.2,0.2c0.1,0 0.2,0 0.3,-0.1c0,0 0.5,-0.6 1.1,-0.9c0,0 0,0 0,0c0,0 0,0 0,0c0,0.3 -0.1,0.5 -0.2,0.8c-0.3,0.9 -0.8,1.6 -1.6,2c0,0 0,0 0,0c0,0 0,0 0,0c-0.1,-0.1 -0.4,-0.5 -0.5,-1c-0.2,-0.4 -0.2,-0.9 -0.2,-1.4c-0.1,-0.5 0,-1 0.2,-1.6m-0.9,3.1c0,-0.1 0,-0.1 0,0c0,-0.1 0,-0.1 0,0c0.3,0.4 0.8,1 0.9,1.9c0,0.1 0.1,0.2 0.2,0.2c0.1,0 0.2,0 0.3,-0.1c0,0 0.4,-0.6 1,-1c0,0 0,0 0,0c0,0 0,0 0,0c0,0.3 -0.1,0.5 -0.1,0.8c-0.2,0.9 -0.6,1.6 -1.3,2.2c0,0 0,0 0,0c0,0 0,0 0,0c-0.2,-0.2 -0.5,-0.5 -0.7,-1c-0.2,-0.4 -0.3,-0.9 -0.4,-1.4c-0.1,-0.5 0,-1.1 0.1,-1.6m-0.5,3c0,0 0,0 0,0c0,0 0,0 0,0c0.4,0.3 0.8,0.9 1,1.8c0,0.1 0.1,0.2 0.2,0.2c0.1,0 0.2,0 0.3,-0.1c0,0 0.3,-0.6 0.8,-1.1c0,0 0,0 0,0c0,0 0,0 0,0c0,0.3 0,0.6 -0.1,0.9c-0.2,0.9 -0.5,1.7 -1.1,2.2c0,0 0,0 0,0c0,0 0,0 0,0c-0.1,-0.1 -0.4,-0.4 -0.6,-0.8c-0.2,-0.4 -0.4,-0.9 -0.5,-1.4c-0.1,-0.5 -0.1,-1.1 0,-1.7m-0.3,3.2c0,0 0.1,0 0,0c0.1,0 0.1,0 0,0c0.1,0 0.2,0.1 0.2,0.2c0.3,0.3 0.7,0.8 0.9,1.6c0,0.1 0.1,0.2 0.3,0.2c0.1,0 0.2,-0.1 0.2,-0.2c0,0 0.1,-0.7 0.7,-1.2c0,0 0,0 0,0c0,0 0,0 0,0c0.1,0.4 0.1,0.9 0,1.5c-0.1,0.7 -0.4,1.3 -0.9,1.8c0,0 0,0 0,0c0,0 0,0 0,0c-0.4,-0.4 -1.5,-1.5 -1.4,-3.9m-0.1,3.1c0,0 0,0 0,0c0.1,0.1 0.2,0.1 0.2,0.2c0.3,0.3 0.8,0.8 1.1,1.5c0,0.1 0.1,0.2 0.2,0.2c0,0 0,0 0,0c0.1,0 0.2,-0.1 0.2,-0.2c0,0 0.3,-0.7 0.7,-1.2c0,0 0,0 0,0c0,0 0,0 0,0c0.1,0.7 0.2,1.9 -0.7,3.3c0,0 0,0 0,0c0,0 0,0 0,0c-0.4,-0.4 -1.6,-1.3 -1.7,-3.8c0,0 0,0 0,0m0.2,3.2c0,0 0,0 0,0c0,0 0,0 0,0c0.5,0.2 1.1,0.6 1.6,1.4c0.1,0.1 0.2,0.1 0.3,0.1c0.1,0 0.2,-0.1 0.2,-0.2l0,0l0,0c0,0 0.2,-0.8 0.5,-1.4c0,0 0,0 0,0c0,0 0,0 0,0c0.1,0.3 0.2,0.5 0.3,0.8c0.2,0.9 0,1.7 -0.4,2.5c0,0 0,0 0,0c0,0 0,0 0,0c-0.2,-0.1 -0.6,-0.2 -1,-0.6c-0.4,-0.3 -0.7,-0.7 -0.9,-1.2c-0.3,-0.2 -0.5,-0.8 -0.6,-1.4m0.7,3c0,0 0,0 0,0c0,0 0,0 0,0c0.1,0 0.2,0.1 0.3,0.1c0.4,0.2 0.9,0.5 1.4,1.2c0.1,0.1 0.2,0.1 0.3,0.1c0.1,0 0.2,-0.1 0.2,-0.2c0,0 0.1,-0.7 0.4,-1.3c0,0 0,0 0,0c0,0 0,0 0,0c0.3,0.7 0.7,2 0.1,3.3c0,0 0,0 0,0c0,0 0,0 0,0c-0.6,-0.2 -2,-0.8 -2.7,-3.2m1.8,4.5c-0.3,-0.4 -0.6,-0.9 -0.9,-1.4c0,0 0,0 0,0c0,0 0,0 0,0c0.1,0 0.2,0.1 0.3,0.1c0.4,0.1 1,0.4 1.5,1c0.1,0.1 0.2,0.1 0.3,0.1c0.1,0 0.2,-0.1 0.2,-0.2c0,0 0,-0.7 0.2,-1.4c0,0 0,0 0,0c0,0 0,0 0,0c0.1,0.3 0.3,0.5 0.4,0.8c0.3,0.9 0.4,1.7 0.1,2.5c0,0 0,0 0,0c0,0 0,0 0,0c-0.2,0 -0.6,-0.1 -1.1,-0.4c-0.3,-0.4 -0.6,-0.7 -1,-1.1m0.5,1.4c0,0 0,0 0,0c0,0 0,0 0,0c0.5,0.1 1.2,0.3 1.9,0.9c0.1,0.1 0.2,0.1 0.3,0c0.1,-0.1 0.1,-0.2 0.1,-0.3c0,0 -0.1,-0.7 0.1,-1.3c0,0 0,0 0,0c0,0 0,0 0,0c0.2,0.3 0.3,0.5 0.5,0.8c0.3,0.6 0.6,1.5 0.4,2.4c0,0 0,0 0,0l0,0c-0.2,0 -0.6,-0.1 -1.1,-0.3c-0.4,-0.2 -0.8,-0.5 -1.2,-0.8c-0.4,-0.4 -0.7,-0.9 -1,-1.4m5.9,5.2c0,0 -0.3,-0.6 -0.3,-1.3c0,0 0,0 0,0c0,0 0,0 0,0c0.6,0.5 1.6,1.6 1.5,3c0,0 0,0 0,0c-0.1,0 -0.2,0 -0.4,0c-0.2,0 -0.4,0 -0.6,-0.1c-0.9,-0.2 -1.8,-0.7 -2.7,-1.5c0,0 0,0 0,0c0,0 0,0 0,0c0.5,-0.1 1.2,-0.1 2.1,0.3c0.1,0 0.2,0 0.3,-0.1c0.2,-0.1 0.2,-0.2 0.1,-0.3m-2.3,-1.9c0.1,0.1 0.2,0.1 0.3,0c0.1,-0.1 0.1,-0.2 0.1,-0.3c0,0 -0.2,-0.6 -0.1,-1.3c0,0 0,0 0,0c0,0 0,0 0,0c0.5,0.6 1.3,1.8 1.2,3c0,0 0,0 0,0c0,0 -0.1,0 -0.1,0c-0.2,0 -0.6,0 -1,-0.2c-0.4,-0.1 -0.9,-0.4 -1.3,-0.7c-0.4,-0.3 -0.8,-0.7 -1.1,-1.2c0,0 0,0 0,0c0,0 0,0 0,0c0.5,0.1 1.2,0.2 2,0.7m10.1,-6.8c-0.1,0.1 -0.2,0.1 -0.2,0.2c-0.6,0.4 -0.9,0.8 -1,1.2c-0.1,0 -0.1,0 -0.2,-0.1c-0.4,-0.1 -0.4,-0.4 -0.5,-0.4c0,-0.2 0.1,-0.4 0.4,-0.7c0.4,-0.4 0.7,-0.5 1,-0.5c0.1,0 0.2,0 0.3,0.1c0.1,0 0.2,0.1 0.2,0.2c0,0 0,0 0,0m0.5,2.2c-0.2,0 -0.6,0.1 -0.9,-0.1c-0.1,0 -0.1,-0.1 -0.1,-0.2c0,-0.4 0.4,-0.7 0.7,-0.9c0.4,-0.3 0.7,-0.5 1,-0.5c0.1,0 0.2,0 0.3,0.1c0.1,0.1 0.1,0.1 0.1,0.2c0,0.1 -0.2,0.3 -0.3,0.4c-0.3,0.3 -0.6,0.6 -0.8,1m2.2,0.1c-0.2,0.1 -0.7,0.5 -1.1,0.4c-0.1,0 -0.2,0 -0.3,-0.1c0.2,-0.4 0.6,-0.7 1,-0.9c0.5,-0.3 0.7,-0.1 0.7,-0.1c0.1,0.1 0.1,0.2 0.1,0.2c0,0.1 -0.2,0.4 -0.4,0.5c0.1,-0.1 0.1,-0.1 0,0m-4.6,-2.9c-0.1,0.1 -0.1,0.1 -0.2,0.2c-0.3,0.2 -0.5,0.5 -0.6,0.9c-0.1,0 -0.1,0 -0.2,0c-0.3,0 -0.4,-0.1 -0.5,-0.2c0,0 -0.1,-0.2 0.1,-0.4c0.2,-0.3 0.7,-0.6 1.1,-0.6c0,0 0.1,0 0.1,0c0,0 0,0 0,0c0.1,0.1 0.2,0.1 0.2,0.1m11.1,0.6c-0.1,0.1 -0.3,0.2 -0.6,0.2c-0.4,-0.5 -1.3,-1.6 -2.5,-2.2c-0.1,-0.1 -0.2,-0.1 -0.3,0c-0.1,0 -0.2,0.1 -0.2,0.2c-0.1,0.1 -0.1,0.2 0,0.3c0,0.1 0.1,0.2 0.2,0.2c1,0.5 1.8,1.5 2.2,1.9c0,0.1 -0.1,0.1 -0.1,0.2c-0.2,0.2 -0.4,0.3 -0.7,0.3c-0.1,-0.2 -0.3,-0.5 -0.6,-0.8c-0.4,-0.4 -1.1,-0.9 -1.1,-1c-0.1,-0.1 -0.2,-0.1 -0.3,-0.1c-0.1,0 -0.2,0.1 -0.3,0.2c-0.1,0.1 -0.1,0.2 -0.1,0.3c0,0.1 0.1,0.2 0.2,0.3c0.2,0.1 0.7,0.5 1,0.8c0.3,0.3 0.4,0.5 0.4,0.6c0,0.1 -0.1,0.2 -0.2,0.3c-0.2,0.1 -0.3,0.2 -0.6,0.2c-0.1,-0.2 -0.4,-0.7 -0.8,-1.2c-0.2,-0.2 -0.4,-0.2 -0.6,0c-0.1,0.1 -0.1,0.2 -0.1,0.3c0,0.1 0,0.2 0.1,0.3c0.3,0.3 0.5,0.7 0.6,0.9c-0.1,0 -0.1,0.1 -0.2,0.1c-0.2,0.1 -0.5,0.1 -0.7,0.1c0.1,-0.2 0.2,-0.3 0.2,-0.5c0,-0.2 0,-0.6 -0.4,-1c-0.2,-0.2 -0.6,-0.4 -1,-0.3c0,-0.3 -0.2,-0.5 -0.4,-0.7c-0.4,-0.3 -0.9,-0.4 -1.4,-0.3l0,0c-0.1,-0.2 -0.3,-0.5 -0.7,-0.7c-0.4,-0.2 -0.8,-0.2 -1.2,-0.1c-0.4,-0.3 -0.8,-0.4 -0.9,-0.4c-0.6,-0.1 -1.3,0.2 -1.8,0.7c-2.5,1.3 -5.6,2.7 -6.9,3.3c-0.7,-1.3 -1.3,-2.6 -1.7,-4.1c-0.2,-0.3 -0.3,-0.7 -0.4,-1.1c3.6,-0.4 6.5,-0.8 8.7,-1.3c2.2,-0.4 3.7,-0.9 4.4,-1.4c0.8,-0.6 1.4,-0.9 2.2,-0.8c0.2,0 0.4,0 0.5,0.1c-0.2,0.1 -0.3,0.1 -0.4,0.2c-0.3,0.2 -0.5,0.4 -0.7,0.6c-0.2,0.2 -0.3,0.3 -0.6,0.4c-0.2,0.1 -0.4,0.2 -0.6,0.3c-0.5,0.2 -0.9,0.4 -1,0.8c-0.1,0.4 -0.1,0.7 0.2,1.1c0.4,0.5 1,0.5 1.5,0.5c0.6,0 1.3,-0.2 1.8,-0.5c0.2,-0.1 0.3,-0.2 0.5,-0.3c0.2,-0.1 0.4,-0.3 0.5,-0.3c0,0 0,0 0,0c0.4,-0.1 0.9,-0.1 1.5,0.2c0.5,0.2 1,0.5 1.5,0.8c1.1,0.7 2,1.7 2.2,2c-0.1,0.1 -0.1,0.2 -0.3,0.4m1.6,-0.4c-0.4,-0.3 -0.6,-0.5 -0.8,-0.7c0,0 0,0 0,0l0,0c0,0 -0.1,-0.1 -0.1,-0.1c-0.4,-0.5 -1.2,-1.4 -2.3,-2.1c-0.8,-0.5 -2.3,-1.5 -3.7,-1.1c-0.3,0.1 -0.5,0.2 -0.8,0.4c-0.1,0.1 -0.3,0.2 -0.4,0.3c-0.4,0.3 -1,0.4 -1.4,0.4c-0.4,0 -0.7,0 -0.8,-0.1c0,0 0,-0.1 0,-0.1c0.1,-0.1 0.4,-0.3 0.6,-0.3c0.2,-0.1 0.5,-0.2 0.7,-0.4c0.3,-0.2 0.5,-0.3 0.6,-0.5c0.2,-0.1 0.4,-0.3 0.7,-0.5c0.4,-0.3 0.9,-0.3 1.6,-0.3l0,0c0.1,0 0.2,0 0.3,0c0.1,0 0.2,0 0.3,0c0.8,0 1.5,0.2 2.5,0.6c0.3,0.1 0.6,0.2 1,0.4c0.1,0 1.5,0.5 3.4,0.9c1.7,0.4 4.1,0.9 6.4,1c-0.1,0.4 -0.2,0.7 -0.3,1.1c-0.5,1.5 -1.1,2.9 -1.8,4.2c-1.1,-0.5 -3.9,-1.7 -5.7,-3.1m5.4,9.2c-1.1,1 -2.1,1.4 -2.7,1.5c-0.2,0 -0.4,0.1 -0.6,0.1c-0.2,0 -0.3,0 -0.4,0c0,0 0,0 0,0c0,-0.8 0.3,-1.6 0.9,-2.3c0.2,-0.2 0.4,-0.4 0.7,-0.6c0,0 0,0 0,0c0,0 0,0 0,0c-0.1,0.7 -0.3,1.3 -0.3,1.3c0,0.1 0,0.2 0.1,0.3c0.1,0.1 0.2,0.1 0.3,0.1c0.7,-0.5 1.5,-0.5 2,-0.4c0,0 0,0 0,0c0,0 0,0 0,0m1.9,-2.6c-0.4,0.5 -0.7,0.9 -1.1,1.2c-0.4,0.3 -0.8,0.6 -1.3,0.7c-0.4,0.1 -0.8,0.2 -1,0.2c0,0 -0.1,0 -0.1,0c0,0 0,0 0,0c-0.1,-0.8 0.2,-1.5 0.7,-2.3c0.2,-0.2 0.3,-0.5 0.5,-0.7c0,0 0,0 0,0c0,0 0,0 0,0c0.1,0.7 -0.1,1.3 -0.1,1.4c0,0.1 0,0.2 0.1,0.3c0.1,0.1 0.2,0.1 0.3,0c0.8,-0.7 1.5,-0.8 2,-0.8c0,0 0,0 0,0c0,0 0,0 0,0m0.6,-1.4c-0.4,0.4 -0.8,0.6 -1.2,0.8c-0.5,0.2 -0.9,0.3 -1.1,0.3l0,0c0,0 0,0 0,0c-0.1,-0.8 0,-1.6 0.4,-2.4c0.1,-0.3 0.3,-0.5 0.5,-0.8c0,0 0,0 0,0c0,0 0,0 0,0c0.1,0.7 0.1,1.4 0.1,1.4c0,0.1 0,0.2 0.1,0.3c0.1,0 0.2,0 0.3,0c0.7,-0.6 1.4,-0.8 1.9,-0.9c0,0 0,0 0,0c0,0 0,0 0,0c-0.3,0.5 -0.6,1 -1,1.3m1.5,-2.7c-0.3,0.4 -0.7,0.7 -1.1,1c-0.5,0.3 -0.9,0.4 -1.1,0.4l0,0c0,0 0,0 0,0c-0.2,-0.8 -0.2,-1.6 0.1,-2.5c0.1,-0.3 0.2,-0.5 0.4,-0.8c0,0 0,0 0,0c0,0 0,0 0,0c0.2,0.7 0.2,1.3 0.2,1.3c0,0.1 0.1,0.2 0.2,0.2c0.1,0 0.2,0 0.3,-0.1c0.6,-0.6 1.1,-0.9 1.5,-1c0.1,0 0.2,-0.1 0.3,-0.1c0,0 0,0 0,0c0,0 0,0 0,0c-0.2,0.6 -0.5,1.1 -0.8,1.6m1,-3c-0.3,0.4 -0.6,0.8 -1,1.1c-0.4,0.3 -0.9,0.5 -1,0.5c0,0 0,0 0,0c0,0 0,0 0,0c-0.4,-0.9 -0.3,-1.8 -0.1,-2.5c0.1,-0.3 0.2,-0.6 0.3,-0.9c0,0 0,0 0,0l0,0c0,0 0,0 0,0c0.3,0.6 0.4,1.4 0.4,1.4c0,0.1 0.1,0.2 0.2,0.2c0.1,0 0.2,0 0.3,-0.1c0.6,-0.7 1.2,-1.1 1.7,-1.3c0,0 0,0 0,0c0,0 0,0 0,0c-0.2,0.7 -0.5,1.2 -0.8,1.6m0.9,-3c-0.2,0.5 -0.5,0.9 -0.9,1.2c-0.4,0.4 -0.8,0.5 -0.9,0.6c0,0 0,0 0,0c0,0 0,0 0,0c-0.4,-0.7 -0.5,-1.5 -0.4,-2.5c0,-0.3 0.1,-0.6 0.2,-0.9c0,0 0,0 0,0c0,0 0,0 0,0c0.4,0.6 0.5,1.3 0.5,1.4c0,0.1 0.1,0.2 0.2,0.2c0.1,0 0.2,0 0.3,-0.1c0.5,-0.8 1.1,-1.2 1.5,-1.5c0,0 0,0 0,0c0,0 0,0 0,0c-0.1,0.6 -0.3,1.1 -0.5,1.6" class="st5"/>
   <path id="svg_51" d="m23.6,11c3,-0.5 3.3,0.4 3.3,0.4s0.1,0.2 0.3,0.1c0,0 0.2,0 0.1,-0.3c0,0 -0.3,-1 -1.9,-1.1c0,0 -0.8,-0.1 -1.7,0c-0.3,0 -0.3,0.6 -0.3,0.6c-0.1,0.3 0.2,0.3 0.2,0.3" class="st5"/>
   <path id="svg_52" d="m21,11.5c-0.4,-0.2 -1.2,-0.1 -1.2,-0.1c-1.3,0 -1.7,0.9 -1.7,0.9c-0.1,0.3 0.1,0.3 0.1,0.3c0.3,0.1 0.4,-0.2 0.4,-0.2s0.1,-0.2 0.6,-0.4c0,0.1 0,0.2 0,0.3c0,0.4 0.3,0.7 0.7,0.7c0.4,0 0.7,-0.3 0.7,-0.7c0,-0.1 0,-0.2 -0.1,-0.3c0.2,0.1 0.4,0.2 0.5,0.4c0,0.1 0.2,0.1 0.4,0.1c0.3,0 0.2,-0.2 0.2,-0.2c-0.1,-0.6 -0.6,-0.8 -0.6,-0.8" class="st5"/>
   <path id="svg_53" d="m23.5,12.6c0.3,0 0.4,0 0.4,-0.1c0.1,-0.2 0.3,-0.4 0.5,-0.4c0,0.1 -0.1,0.2 -0.1,0.3c0,0.4 0.3,0.7 0.7,0.7c0.4,0 0.7,-0.3 0.7,-0.7c0,-0.1 0,-0.2 0,-0.3c0.6,0.1 0.6,0.4 0.6,0.4s0.1,0.2 0.4,0.2c0,0 0.2,0 0.1,-0.3c0,0 -0.4,-0.8 -1.7,-0.9c0,0 -0.8,0 -1.2,0.1c0,0 -0.4,0.2 -0.6,0.9c0,0 -0.1,0.1 0.2,0.1" class="st5"/>
   <path id="svg_54" d="m17.7,11.5c0.2,0.1 0.3,-0.1 0.3,-0.1s0.3,-0.9 3.3,-0.4c0,0 0.3,0.1 0.2,-0.2c0,0 -0.1,-0.6 -0.3,-0.6c-0.9,-0.2 -1.7,0 -1.7,0c-1.6,0.2 -1.9,1.1 -1.9,1.1c-0.1,0.2 0.1,0.2 0.1,0.2" class="st5"/>
   <g id="svg_55">
    <path id="svg_56" d="m73.7,23.3l4.2,0l11.3,25.8l-4.8,0l-2.6,-6.1l-12.1,0l-2.6,6.2l-4.6,0l11.2,-25.9zm6.5,15.7l-4.4,-10.3l-4.4,10.3l8.8,0z" class="st3"/>
    <path id="svg_57" d="m92.3,29.8l4.4,0l0,4.4c1.2,-2.9 3.4,-4.9 6.9,-4.7l0,4.7l-0.3,0c-3.9,0 -6.6,2.5 -6.6,7.7l0,7.4l-4.4,0l0,-19.5z" class="st3"/>
    <path id="svg_58" d="m106.7,52.8l1.6,-3.3c2.1,1.3 4.2,2.1 6.9,2.1c4,0 6.1,-2.1 6.1,-5.9l0,-1.5c-1.6,2.1 -3.6,3.6 -6.8,3.6c-4.5,0 -8.8,-3.4 -8.8,-9l0,-0.1c0,-5.7 4.3,-9.1 8.8,-9.1c3.3,0 5.3,1.5 6.8,3.3l0,-2.9l4.4,0l0,15.4c0,3.3 -0.8,5.7 -2.5,7.3c-1.8,1.8 -4.5,2.6 -7.9,2.6c-3.1,-0.2 -6.1,-1 -8.6,-2.5zm14.7,-14.2l0,0c0,-3.2 -2.6,-5.4 -5.7,-5.4s-5.5,2.1 -5.5,5.3l0,0.1c0,3.2 2.5,5.3 5.5,5.3c3.1,0 5.7,-2.2 5.7,-5.3z" class="st3"/>
    <path id="svg_59" d="m129.6,39.6l0,0c0,-5.6 3.9,-10.1 9.5,-10.1c6.2,0 9.3,4.8 9.3,10.4c0,0.4 0,0.8 -0.1,1.2l-14.3,0c0.5,3.2 2.7,4.9 5.6,4.9c2.2,0 3.7,-0.8 5.2,-2.3l2.6,2.3c-1.8,2.2 -4.4,3.6 -7.9,3.6c-5.6,0 -9.9,-4.1 -9.9,-10zm14.3,-1.5c-0.3,-2.9 -2,-5.1 -4.9,-5.1c-2.7,0 -4.6,2.1 -5,5.1l9.9,0z" class="st3"/>
    <path id="svg_60" d="m152.1,29.8l4.4,0l0,3c1.2,-1.8 3,-3.4 6,-3.4c4.4,0 6.9,2.9 6.9,7.4l0,12.3l-4.4,0l0,-11c0,-3 -1.5,-4.7 -4.1,-4.7c-2.6,0 -4.4,1.8 -4.4,4.8l0,10.9l-4.4,0l0,-19.3z" class="st3"/>
    <path id="svg_61" d="m175,43.8l0,-10.2l-2.5,0l0,-3.8l2.5,0l0,-5.3l4.4,0l0,5.3l5.2,0l0,3.8l-5.2,0l0,9.5c0,1.7 0.9,2.4 2.4,2.4c1,0 1.9,-0.2 2.7,-0.7l0,3.6c-1.1,0.6 -2.3,1 -4,1c-3.2,0.1 -5.5,-1.3 -5.5,-5.6z" class="st3"/>
    <path id="svg_62" d="m188.5,22.7l4.8,0l0,4.2l-4.8,0l0,-4.2zm0.2,7.1l4.4,0l0,19.3l-4.4,0l0,-19.3z" class="st3"/>
    <path id="svg_63" d="m198.2,29.8l4.4,0l0,3c1.2,-1.8 3,-3.4 6,-3.4c4.4,0 6.9,2.9 6.9,7.4l0,12.3l-4.4,0l0,-11c0,-3 -1.5,-4.7 -4.1,-4.7c-2.6,0 -4.4,1.8 -4.4,4.8l0,10.9l-4.4,0l0,-19.3z" class="st3"/>
    <path id="svg_64" d="m218.9,43.6l0,0c0,-4.2 3.3,-6.3 8,-6.3c2.2,0 3.7,0.3 5.2,0.8l0,-0.5c0,-2.7 -1.7,-4.2 -4.8,-4.2c-2.2,0 -3.8,0.5 -5.5,1.2l-1.2,-3.5c2.1,-1 4.2,-1.6 7.3,-1.6c2.9,0 5.1,0.8 6.4,2.2c1.4,1.4 2.1,3.4 2.1,6l0,11.5l-4.4,0l0,-2.4c-1.3,1.6 -3.3,2.8 -6.3,2.8c-3.6,0 -6.8,-2.1 -6.8,-6zm13.2,-1.4l0,-1.3c-1.1,-0.4 -2.6,-0.8 -4.4,-0.8c-2.9,0 -4.5,1.2 -4.5,3.2l0,0.1c0,1.9 1.6,2.9 3.8,2.9c2.9,0.1 5.1,-1.6 5.1,-4.1z" class="st3"/>
    <path id="svg_65" d="m240.7,44.1l4.9,0l0,5.1l-4.9,0l0,-5.1z" class="st3"/>
    <path id="svg_66" d="m250.1,52.8l1.6,-3.3c2.1,1.3 4.2,2.1 6.9,2.1c4,0 6.1,-2.1 6.1,-5.9l0,-1.5c-1.6,2.1 -3.6,3.6 -6.8,3.6c-4.5,0 -8.8,-3.4 -8.8,-9l0,-0.1c0,-5.7 4.3,-9.1 8.8,-9.1c3.3,0 5.3,1.5 6.8,3.3l0,-2.9l4.4,0l0,15.4c0,3.3 -0.8,5.7 -2.5,7.3c-1.8,1.8 -4.5,2.6 -7.9,2.6c-3.1,-0.2 -6.1,-1 -8.6,-2.5zm14.7,-14.2l0,0c0,-3.2 -2.6,-5.4 -5.7,-5.4c-3.1,0 -5.5,2.1 -5.5,5.3l0,0.1c0,3.2 2.5,5.3 5.5,5.3c3.1,0 5.7,-2.2 5.7,-5.3z" class="st3"/>
    <path id="svg_67" d="m272.9,39.6l0,0c0,-5.6 4.4,-10.2 10.3,-10.2c5.9,0 10.3,4.5 10.3,10l0,0.1c0,5.5 -4.4,10.1 -10.4,10.1c-5.8,0 -10.2,-4.5 -10.2,-10zm16.2,0l0,0c0,-3.5 -2.5,-6.3 -5.9,-6.3c-3.6,0 -5.8,2.8 -5.8,6.2l0,0.1c0,3.4 2.5,6.2 5.9,6.2c3.5,-0.1 5.8,-2.9 5.8,-6.2z" class="st3"/>
    <path id="svg_68" d="m301.8,46.2l0,3l-4.4,0l0,-26.8l4.4,0l0,10.6c1.4,-2 3.4,-3.6 6.6,-3.6c4.5,0 9,3.6 9,10l0,0.1c0,6.4 -4.4,10 -9,10c-3.3,0.1 -5.3,-1.5 -6.6,-3.3zm11,-6.7l0,0c0,-3.8 -2.5,-6.3 -5.5,-6.3c-3,0 -5.6,2.5 -5.6,6.2l0,0.1c0,3.7 2.6,6.2 5.6,6.2c3,0 5.5,-2.4 5.5,-6.2z" class="st3"/>
    <path id="svg_69" d="m320.9,44.1l4.9,0l0,5.1l-4.9,0l0,-5.1z" class="st3"/>
    <path id="svg_70" d="m329.1,43.6l0,0c0,-4.2 3.3,-6.3 8,-6.3c2.2,0 3.7,0.3 5.2,0.8l0,-0.5c0,-2.7 -1.7,-4.2 -4.8,-4.2c-2.2,0 -3.8,0.5 -5.5,1.2l-1.2,-3.5c2.1,-1 4.2,-1.6 7.3,-1.6c2.9,0 5.1,0.8 6.4,2.2c1.4,1.4 2.1,3.4 2.1,6l0,11.5l-4.3,0l0,-2.4c-1.3,1.6 -3.3,2.8 -6.3,2.8c-3.7,0 -6.9,-2.1 -6.9,-6zm13.2,-1.4l0,-1.3c-1.1,-0.4 -2.6,-0.8 -4.4,-0.8c-2.9,0 -4.5,1.2 -4.5,3.2l0,0.1c0,1.9 1.6,2.9 3.8,2.9c2.9,0.1 5.1,-1.6 5.1,-4.1z" class="st3"/>
    <path id="svg_71" d="m351.1,29.8l4.4,0l0,4.4c1.2,-2.9 3.4,-4.9 6.9,-4.7l0,4.7l-0.3,0c-3.9,0 -6.6,2.5 -6.6,7.7l0,7.4l-4.4,0l0,-19.5z" class="st3"/>
   </g>
   <path id="svg_72" d="m24,64.2c0,-0.1 0,-0.2 0,-0.4c0,-0.1 0,-0.2 0,-0.3c0.5,-0.1 1.4,-0.4 1.9,-1c0.3,-0.3 0.4,-0.8 0.4,-1.2c0,-0.4 -0.2,-0.7 -0.6,-0.9c-0.9,-0.6 -2.7,-0.2 -3.2,0c-0.5,-0.1 -2.3,-0.6 -3.2,0c-0.3,0.2 -0.5,0.5 -0.6,0.9c-0.1,0.5 0.1,0.9 0.4,1.2c0.5,0.6 1.4,0.9 1.9,1c0,0.1 0,0.2 0,0.3c0,0.1 0,0.2 0,0.4c-0.4,0.4 -1.7,1.5 -3.5,1.7l0,0c0.1,0.1 0.2,0.4 0.5,0.6c1.6,-0.3 2.8,-1.2 3.3,-1.7c0.1,0.1 0.1,0.1 0.2,0.2c-0.1,0.5 -0.6,1.6 -2.6,2.1c0.3,0.2 0.7,0.3 1.2,0.3c1.4,-0.6 1.9,-1.6 2.1,-2.2c0.1,0 0.2,0 0.3,0c0.1,0 0.2,0 0.3,0c0.2,0.6 0.7,1.5 2.1,2.2c0.5,-0.1 0.9,-0.2 1.2,-0.3c-2,-0.5 -2.5,-1.7 -2.6,-2.1c0.1,-0.1 0.1,-0.1 0.2,-0.2c0.5,0.5 1.7,1.4 3.3,1.7c0.3,-0.3 0.5,-0.6 0.5,-0.6c-1.9,-0.2 -3.1,-1.3 -3.5,-1.7zm-3.5,-2.6c-0.1,0.4 -0.1,0.8 0.1,1.1c-0.4,-0.1 -0.7,-0.3 -0.9,-0.6c-0.2,-0.2 -0.2,-0.4 -0.2,-0.7c0,-0.2 0.1,-0.3 0.3,-0.4c0.2,-0.1 0.5,-0.2 0.9,-0.2c0.2,0 0.3,0 0.5,0c-0.4,0.2 -0.6,0.4 -0.7,0.8zm2,3.1c-0.4,0 -0.8,-0.4 -0.8,-0.8c0,-0.4 0.4,-0.8 0.8,-0.8c0.4,0 0.8,0.4 0.8,0.8c0,0.4 -0.4,0.8 -0.8,0.8zm1,-2c-0.3,-0.2 -0.6,-0.4 -1,-0.4c-0.4,0 -0.7,0.1 -1,0.4c-0.2,-0.2 -0.4,-0.6 -0.3,-0.9c0.3,-0.7 1.3,-0.7 1.3,-0.7l0,0c0,0 0.3,0 0.6,0.1c0.4,0.1 0.6,0.3 0.7,0.6c0.1,0.3 -0.1,0.7 -0.3,0.9zm1.8,-1.7c0.1,0.1 0.2,0.2 0.3,0.4c0,0.3 0,0.5 -0.2,0.7c-0.2,0.3 -0.6,0.4 -0.9,0.6c0.2,-0.4 0.2,-0.7 0.1,-1.1c-0.1,-0.3 -0.3,-0.6 -0.6,-0.8c0.4,0 1,0 1.3,0.2z" class="st3"/>
  </g>
 </g>
</svg>
